<?xml version="1.0" encoding="UTF-8" standalone="no"?>
<!-- Created with Inkscape (http://www.inkscape.org/) -->

<svg
   xmlns:dc="http://purl.org/dc/elements/1.1/"
   xmlns:cc="http://creativecommons.org/ns#"
   xmlns:rdf="http://www.w3.org/1999/02/22-rdf-syntax-ns#"
   xmlns:svg="http://www.w3.org/2000/svg"
   xmlns="http://www.w3.org/2000/svg"
   xmlns:sodipodi="http://sodipodi.sourceforge.net/DTD/sodipodi-0.dtd"
   xmlns:inkscape="http://www.inkscape.org/namespaces/inkscape"
   width="20mm"
   height="13.105686mm"
   viewBox="0 0 20 13.105686"
   version="1.1"
   id="svg8"
   inkscape:version="0.92.4 (5da689c313, 2019-01-14)"
   sodipodi:docname="enlighment-01.svg">
  <defs
     id="defs2" />
  <sodipodi:namedview
     id="base"
     pagecolor="#ffffff"
     bordercolor="#666666"
     borderopacity="1.0"
     inkscape:pageopacity="0.0"
     inkscape:pageshadow="2"
     inkscape:zoom="2.8284271"
     inkscape:cx="118.01034"
     inkscape:cy="43.843681"
     inkscape:document-units="mm"
     inkscape:current-layer="layer5"
     showgrid="false"
     inkscape:object-paths="true"
     inkscape:snap-grids="true"
     inkscape:window-width="1920"
     inkscape:window-height="1017"
     inkscape:window-x="-8"
     inkscape:window-y="-8"
     inkscape:window-maximized="1"
     fit-margin-top="0"
     fit-margin-left="0"
     fit-margin-right="0"
     fit-margin-bottom="0">
    <inkscape:grid
       type="xygrid"
       id="grid10"
       originx="-5.6097903e-07"
       originy="-9.6045127e-07" />
  </sodipodi:namedview>
  <metadata
     id="metadata5">
    <rdf:RDF>
      <cc:Work
         rdf:about="">
        <dc:format>image/svg+xml</dc:format>
        <dc:type
           rdf:resource="http://purl.org/dc/dcmitype/StillImage" />
        <dc:title></dc:title>
      </cc:Work>
    </rdf:RDF>
  </metadata>
  <g
     inkscape:label="Layer 1"
     inkscape:groupmode="layer"
     id="layer1"
     style="display:none;opacity:0.21600001"
     sodipodi:insensitive="true"
     transform="translate(-5.6097904e-7,-283.89431)">
    <path
       style="fill:none;stroke:#000000;stroke-width:0.26458332px;stroke-linecap:butt;stroke-linejoin:miter;stroke-opacity:1"
       d="m 68.791666,81.364584 -2.645834,2.645833 1.322917,1.322917 h 2.645833 l 1.322917,-1.322917 -2.645833,-2.645833"
       id="path4528"
       inkscape:connector-curvature="0" />
    <path
       style="fill:none;stroke:#000000;stroke-width:0.26458332px;stroke-linecap:butt;stroke-linejoin:miter;stroke-opacity:1"
       d="m 76.729167,81.364583 -2.645834,2.645833 1.322917,1.322917 h 2.645833 L 79.375,84.010416 76.729167,81.364583"
       id="path4528-4"
       inkscape:connector-curvature="0" />
    <path
       style="fill:none;stroke:#000000;stroke-width:0.26458332px;stroke-linecap:butt;stroke-linejoin:miter;stroke-opacity:1"
       d="m 84.666667,81.364583 -2.645834,2.645833 1.322917,1.322917 h 2.645833 L 87.3125,84.010416 84.666667,81.364583"
       id="path4528-4-4"
       inkscape:connector-curvature="0" />
    <path
       style="fill:none;stroke:#000000;stroke-width:0.26458332px;stroke-linecap:butt;stroke-linejoin:miter;stroke-opacity:1"
       d="m 72.760416,77.395834 -2.645834,2.645833 2.645834,2.645833 2.645833,-2.645833 z"
       id="path4562"
       inkscape:connector-curvature="0" />
    <path
       style="fill:none;stroke:#000000;stroke-width:0.26458332px;stroke-linecap:butt;stroke-linejoin:miter;stroke-opacity:1"
       d="m 80.697917,77.395834 -2.645834,2.645833 2.645834,2.645833 2.645833,-2.645833 z"
       id="path4562-3"
       inkscape:connector-curvature="0" />
    <path
       style="fill:none;stroke:#000000;stroke-width:0.26458332px;stroke-linecap:butt;stroke-linejoin:miter;stroke-opacity:1"
       d="m 76.729166,78.71875 -2.645834,-2.645833 c 0,0 2.645834,-2.645833 2.645834,-6.614583 -1e-6,3.968751 2.645834,6.614583 2.645834,6.614583 z"
       id="path4581"
       inkscape:connector-curvature="0" />
    <path
       style="fill:none;stroke:#000000;stroke-width:0.26458332px;stroke-linecap:butt;stroke-linejoin:miter;stroke-opacity:1"
       d="m 64.822916,84.010417 c 0,0 0,1.322917 -3.96875,1.322917 l 3.968751,-10e-7 z"
       id="path4583"
       inkscape:connector-curvature="0" />
  </g>
  <g
     inkscape:groupmode="layer"
     id="layer2"
     inkscape:label="Layer 2"
     style="display:none;opacity:0.32400004"
     sodipodi:insensitive="true"
     transform="translate(-5.6097904e-7,-283.89431)">
    <path
       style="fill:#000000;fill-opacity:1;stroke:none;stroke-width:0.26458332px;stroke-linecap:butt;stroke-linejoin:miter;stroke-opacity:1"
       d="m 75.406249,85.333334 -1.322917,-1.322917 2.645834,-2.645833 2.645833,2.645833 -1.322917,1.322917 h 1.322917 l 1.322917,-1.322917 c 0,0 -1.322917,-1.322917 -2.645834,-2.645833 -1.322916,-1.322917 -1.322916,-2.645834 -1.322916,-2.645834 0,0 0,1.322917 -1.322917,2.645834 -1.322917,1.322916 -2.645833,2.645833 -2.645833,2.645833 l 1.322916,1.322917 z"
       id="path4594"
       inkscape:connector-curvature="0" />
    <path
       style="fill:#000000;fill-opacity:1;stroke:none;stroke-width:0.26458332px;stroke-linecap:butt;stroke-linejoin:miter;stroke-opacity:1"
       d="m 79.374999,82.6875 1.322917,-1.322916 2.645833,2.645833 -1.322917,1.322917 h 1.322917 l 1.322917,-1.322917 c 0,0 -1.322917,-1.322917 -2.645834,-2.645833 -1.322916,-1.322917 -1.322916,-2.645834 -1.322916,-2.645834 0,0 0,1.322917 -1.322917,2.645834 C 78.052082,82.6875 78.052082,82.6875 78.052082,82.6875 Z"
       id="path4598"
       inkscape:connector-curvature="0" />
    <path
       style="opacity:1;fill:#000000;fill-opacity:1;stroke:none;stroke-width:0.26458332px;stroke-linecap:butt;stroke-linejoin:miter;stroke-opacity:1"
       d="m 74.083333,82.6875 -1.322917,-1.322916 -2.645833,2.645833 1.322917,1.322917 h -1.322917 l -1.322917,-1.322917 c 0,0 1.322917,-1.322917 2.645834,-2.645833 1.322916,-1.322917 1.322916,-2.645834 1.322916,-2.645834 0,0 0,1.322917 1.322917,2.645834 C 75.40625,82.6875 75.40625,82.6875 75.40625,82.6875 Z"
       id="path4598-4"
       inkscape:connector-curvature="0" />
  </g>
  <g
     inkscape:groupmode="layer"
     id="layer3"
     inkscape:label="Layer 3"
     style="display:none;opacity:0.23600003"
     sodipodi:insensitive="true"
     transform="translate(-5.6097904e-7,-283.89431)">
    <path
       style="fill:none;stroke:#000000;stroke-width:0.26458332px;stroke-linecap:butt;stroke-linejoin:miter;stroke-opacity:1"
       d="m 68.262499,85.333334 -1.322919,-1.322917 4.497919,-4.497917 0.661456,0.661459 4.630211,-4.630209 4.630208,4.630206 0.661456,-0.661456 4.497919,4.497917 -1.322919,1.322917"
       id="path4831"
       inkscape:connector-curvature="0" />
    <path
       style="fill:#000000;fill-opacity:1;stroke:none;stroke-width:0.99999994px;stroke-linecap:butt;stroke-linejoin:miter;stroke-opacity:1"
       d="m 290,287.51953 -10,10 -10,10 10,10 -5,5 h 30 l -5,-5 10,-10 -10,-10 c -5,-5 -10,-10 -10,-10 z m 0,5 c 0,0 0,0 5,5 l 10,10 -5,5 c 0,0 -5,5 -10,5 -5,0 -10,-5 -10,-5 l -5,-5 10,-10 z"
       transform="scale(0.26458333)"
       id="path4777"
       inkscape:connector-curvature="0" />
    <path
       style="fill:#000000;fill-opacity:1;stroke:none;stroke-width:0.26458332px;stroke-linecap:butt;stroke-linejoin:miter;stroke-opacity:1"
       d="m 79.375001,84.010417 c 1.322917,1.322916 2.645833,1.322917 2.645833,1.322917 H 79.375 l -1.322916,-1.322917 2.645833,-2.645833 c 1.322917,-1.322917 1.322916,-1.322917 1.322916,-1.322917 0,0 10e-7,0 1.322917,1.322917 l 2.645834,2.645833 -1.322917,1.322917 -2.645832,-10e-7 c 0,0 1.322916,0 2.645833,-1.322916 l -2.645833,-2.645834 z"
       id="path4637"
       inkscape:connector-curvature="0"
       sodipodi:nodetypes="ccccscscccccc" />
    <path
       style="fill:#000000;fill-opacity:1;stroke:none;stroke-width:0.26458332px;stroke-linecap:butt;stroke-linejoin:miter;stroke-opacity:1"
       d="m 68.791667,84.010417 c 1.322917,1.322916 2.645833,1.322917 2.645833,1.322917 H 68.791666 L 67.46875,84.010417 70.114583,81.364584 C 71.4375,80.041667 71.4375,80.041667 71.4375,80.041667 c 0,0 0,0 1.322916,1.322917 l 2.645834,2.645833 -1.322917,1.322917 -2.645832,-10e-7 c 0,0 1.322916,0 2.645833,-1.322916 l -2.645833,-2.645834 z"
       id="path4637-4"
       inkscape:connector-curvature="0"
       sodipodi:nodetypes="ccccscscccccc" />
    <path
       style="fill:none;stroke:#000000;stroke-width:0.66500002;stroke-linecap:butt;stroke-linejoin:miter;stroke-miterlimit:4;stroke-dasharray:none;stroke-opacity:1"
       d="m 69.320833,84.804167 2.116666,-2.116667 2.116668,2.116667"
       id="path4795"
       inkscape:connector-curvature="0"
       sodipodi:nodetypes="ccc" />
    <path
       style="fill:none;stroke:#000000;stroke-width:0.66500002;stroke-linecap:butt;stroke-linejoin:miter;stroke-miterlimit:4;stroke-dasharray:none;stroke-opacity:1"
       d="M 79.904167,84.804167 82.020833,82.6875 84.1375,84.804167"
       id="path4795-3"
       inkscape:connector-curvature="0"
       sodipodi:nodetypes="ccc" />
    <path
       style="fill:none;stroke:#000000;stroke-width:0.66500002;stroke-linecap:butt;stroke-linejoin:miter;stroke-miterlimit:4;stroke-dasharray:none;stroke-opacity:1"
       d="m 73.289583,82.158333 3.439583,-3.439583 3.439584,3.439583"
       id="path4812"
       inkscape:connector-curvature="0"
       sodipodi:nodetypes="ccc" />
  </g>
  <g
     inkscape:groupmode="layer"
     id="layer4"
     inkscape:label="Layer 4"
     style="display:none;opacity:0.30700001"
     sodipodi:insensitive="true"
     transform="translate(-5.6097904e-7,-283.89431)">
    <path
       style="fill:none;stroke:#000000;stroke-width:0.66500002;stroke-linecap:square;stroke-linejoin:miter;stroke-miterlimit:4;stroke-dasharray:none;stroke-opacity:1"
       d="m 68.791666,85.068751 -1.322917,-1.322917 3.96875,-3.96875 3.968751,3.96875 -1.322917,1.322916 z"
       id="path4846"
       inkscape:connector-curvature="0" />
    <path
       style="fill:none;stroke:#000000;stroke-width:0.66500002;stroke-linecap:square;stroke-linejoin:miter;stroke-miterlimit:4;stroke-dasharray:none;stroke-opacity:1"
       d="m 79.375,85.068751 -1.322917,-1.322917 3.96875,-3.96875 3.968751,3.96875 -1.322917,1.322916 z"
       id="path4846-0"
       inkscape:connector-curvature="0" />
    <path
       style="fill:none;stroke:#000000;stroke-width:0.66500002;stroke-linecap:butt;stroke-linejoin:miter;stroke-miterlimit:4;stroke-dasharray:none;stroke-opacity:1"
       d="m 72.098957,80.438542 4.630209,-4.630208 4.630209,4.630209"
       id="path4869"
       inkscape:connector-curvature="0" />
    <path
       style="fill:none;stroke:#000000;stroke-width:0.465;stroke-linecap:butt;stroke-linejoin:miter;stroke-miterlimit:4;stroke-dasharray:none;stroke-opacity:1"
       d="m 72.760437,81.099979 3.968729,-3.968728 3.968728,3.968728"
       id="path4871"
       inkscape:connector-curvature="0" />
    <path
       style="fill:none;stroke:#000000;stroke-width:0.465;stroke-linecap:butt;stroke-linejoin:miter;stroke-miterlimit:4;stroke-dasharray:none;stroke-opacity:1"
       d="m 68.130207,84.407292 3.307292,-3.307291 3.307292,3.307292"
       id="path4873"
       inkscape:connector-curvature="0" />
    <path
       style="fill:none;stroke:#000000;stroke-width:0.465;stroke-linecap:butt;stroke-linejoin:miter;stroke-miterlimit:4;stroke-dasharray:none;stroke-opacity:1"
       d="m 78.713541,84.407292 3.307291,-3.307291 3.307293,3.307292"
       id="path4875"
       inkscape:connector-curvature="0" />
    <path
       style="fill:none;stroke:#000000;stroke-width:0.26458332px;stroke-linecap:butt;stroke-linejoin:miter;stroke-opacity:1"
       d="m 76.067686,77.792685 0.66148,0.661482 0.661458,-0.661458"
       id="path4881"
       inkscape:connector-curvature="0" />
    <path
       style="fill:none;stroke:#000000;stroke-width:0.26458332px;stroke-linecap:butt;stroke-linejoin:miter;stroke-opacity:1"
       d="m 70.776041,81.761459 0.661458,0.661458 0.661458,-0.661458"
       id="path4883"
       inkscape:connector-curvature="0" />
    <path
       style="fill:none;stroke:#000000;stroke-width:0.26458332px;stroke-linecap:butt;stroke-linejoin:miter;stroke-opacity:1"
       d="m 81.359353,81.761435 0.661479,0.661482 0.66146,-0.66146"
       id="path4885"
       inkscape:connector-curvature="0" />
    <path
       style="fill:none;stroke:#000000;stroke-width:0.26458332px;stroke-linecap:butt;stroke-linejoin:miter;stroke-opacity:1"
       d="m 71.437499,82.422917 v 2.645834"
       id="path4893"
       inkscape:connector-curvature="0" />
    <path
       style="fill:none;stroke:#000000;stroke-width:0.26458332px;stroke-linecap:butt;stroke-linejoin:miter;stroke-opacity:1"
       d="m 76.729166,78.454167 v 5.291667"
       id="path4895"
       inkscape:connector-curvature="0" />
    <path
       style="fill:none;stroke:#000000;stroke-width:0.26458332px;stroke-linecap:butt;stroke-linejoin:miter;stroke-opacity:1"
       d="m 82.020832,82.422917 v 2.645834"
       id="path4897"
       inkscape:connector-curvature="0" />
  </g>
  <g
     inkscape:groupmode="layer"
     id="layer5"
     inkscape:label="Layer 5"
     transform="translate(-5.6097904e-7,-283.89431)">
    <g
       id="g5237"
       transform="matrix(0.98227687,0,0,0.98227687,-65.369284,214.23046)">
      <path
         inkscape:connector-curvature="0"
         id="path4908"
         d="m 67.468749,84.010417 3.96875,-3.96875 3.96875,3.96875"
         style="fill:none;stroke:#000000;stroke-width:0.5;stroke-linecap:round;stroke-linejoin:miter;stroke-miterlimit:4;stroke-dasharray:none;stroke-opacity:1" />
      <path
         inkscape:connector-curvature="0"
         id="path4910"
         d="m 78.052082,84.010417 3.96875,-3.96875 3.96875,3.96875"
         style="fill:none;stroke:#000000;stroke-width:0.5;stroke-linecap:round;stroke-linejoin:miter;stroke-miterlimit:4;stroke-dasharray:none;stroke-opacity:1" />
      <path
         inkscape:connector-curvature="0"
         id="path4912"
         d="m 72.098957,80.703125 4.630209,-4.630208 4.630208,4.630208"
         style="fill:none;stroke:#000000;stroke-width:0.5;stroke-linecap:butt;stroke-linejoin:miter;stroke-miterlimit:4;stroke-dasharray:none;stroke-opacity:1" />
      <path
         inkscape:connector-curvature="0"
         id="path4914"
         d="M 68.527082,84.010417 71.437499,81.1 l 2.910417,2.910417"
         style="fill:none;stroke:#000000;stroke-width:0.25;stroke-linecap:round;stroke-linejoin:miter;stroke-miterlimit:4;stroke-dasharray:none;stroke-opacity:1" />
      <path
         inkscape:connector-curvature="0"
         id="path4916"
         d="m 72.628124,81.232292 4.101042,-4.101042 4.101041,4.101042"
         style="fill:none;stroke:#000000;stroke-width:0.25;stroke-linecap:butt;stroke-linejoin:miter;stroke-miterlimit:4;stroke-dasharray:none;stroke-opacity:1" />
      <path
         inkscape:connector-curvature="0"
         id="path4918"
         d="M 79.110416,84.010417 82.020832,81.1 84.93125,84.010418"
         style="fill:none;stroke:#000000;stroke-width:0.25;stroke-linecap:round;stroke-linejoin:miter;stroke-miterlimit:4;stroke-dasharray:none;stroke-opacity:1" />
      <path
         inkscape:connector-curvature="0"
         id="path4932"
         d="m 66.674999,84.010417 4.7625,-4.7625 1.058333,1.058333"
         style="fill:none;stroke:#000000;stroke-width:0.25;stroke-linecap:round;stroke-linejoin:miter;stroke-miterlimit:4;stroke-dasharray:none;stroke-opacity:1" />
      <path
         inkscape:connector-curvature="0"
         id="path4936"
         d="m 86.783332,84.010417 -4.7625,-4.7625 -1.058333,1.058333"
         style="fill:none;stroke:#000000;stroke-width:0.25;stroke-linecap:round;stroke-linejoin:miter;stroke-miterlimit:4;stroke-dasharray:none;stroke-opacity:1" />
      <path
         inkscape:connector-curvature="0"
         id="path4938"
         d="m 70.908332,81.629167 0.529167,0.529167 0.529167,-0.529167"
         style="fill:none;stroke:#000000;stroke-width:0.25;stroke-linecap:butt;stroke-linejoin:miter;stroke-miterlimit:4;stroke-dasharray:none;stroke-opacity:1" />
      <path
         inkscape:connector-curvature="0"
         id="path4940"
         d="m 71.437499,82.158334 v 1.852083"
         style="fill:none;stroke:#000000;stroke-width:0.25;stroke-linecap:round;stroke-linejoin:miter;stroke-miterlimit:4;stroke-dasharray:none;stroke-opacity:1" />
      <path
         inkscape:connector-curvature="0"
         id="path4938-6"
         d="M 81.491666,81.629166 82.020833,82.158333 82.55,81.629166"
         style="fill:none;stroke:#000000;stroke-width:0.25;stroke-linecap:butt;stroke-linejoin:miter;stroke-miterlimit:4;stroke-dasharray:none;stroke-opacity:1" />
      <path
         inkscape:connector-curvature="0"
         id="path4940-8"
         d="m 82.020833,82.158333 v 1.852083"
         style="fill:none;stroke:#000000;stroke-width:0.25;stroke-linecap:round;stroke-linejoin:miter;stroke-miterlimit:4;stroke-dasharray:none;stroke-opacity:1" />
      <path
         inkscape:connector-curvature="0"
         id="path4938-69"
         d="m 76.2,77.660416 0.529167,0.529167 0.529167,-0.529167"
         style="fill:none;stroke:#000000;stroke-width:0.25;stroke-linecap:butt;stroke-linejoin:miter;stroke-miterlimit:4;stroke-dasharray:none;stroke-opacity:1" />
      <path
         sodipodi:nodetypes="cc"
         inkscape:connector-curvature="0"
         id="path4940-2"
         d="m 76.729167,78.189583 v 5.820834"
         style="fill:none;stroke:#000000;stroke-width:0.25;stroke-linecap:round;stroke-linejoin:miter;stroke-miterlimit:4;stroke-dasharray:none;stroke-opacity:1" />
      <path
         id="path4996"
         transform="scale(0.26458333)"
         d="m 290,268.51953 a 24.999999,24.999999 0 0 0 -25,25 24.999999,24.999999 0 0 0 1.77344,9.22656 L 270,299.51953 l 4,4 16,-16 16,16 4,-4 3.2168,3.2168 a 24.999999,24.999999 0 0 0 1.7832,-9.2168 24.999999,24.999999 0 0 0 -25,-25 z"
         style="fill:none;fill-opacity:1;stroke:#000000;stroke-width:0.94488192;stroke-linecap:butt;stroke-linejoin:miter;stroke-miterlimit:4;stroke-dasharray:none;stroke-opacity:1;paint-order:normal"
         inkscape:connector-curvature="0" />
      <path
         id="path5019"
         transform="scale(0.26458333)"
         d="m 290,270.51953 a 23,23 0 0 0 -23,23 23,23 0 0 0 1.33984,7.66016 L 270,299.51953 l 4,4 16,-16 16,16 4,-4 1.6582,1.6582 a 23,23 0 0 0 1.3418,-7.6582 23,23 0 0 0 -23,-23 z"
         style="fill:none;fill-opacity:1;stroke:#000000;stroke-width:0.94488192;stroke-linecap:butt;stroke-linejoin:miter;stroke-miterlimit:4;stroke-dasharray:none;stroke-opacity:1;paint-order:normal"
         inkscape:connector-curvature="0" />
      <path
         sodipodi:nodetypes="cc"
         inkscape:connector-curvature="0"
         id="path5026"
         d="M 75.935417,76.866667 72.426104,73.357355"
         style="fill:none;stroke:#000000;stroke-width:0.25;stroke-linecap:butt;stroke-linejoin:miter;stroke-miterlimit:4;stroke-dasharray:none;stroke-opacity:1" />
      <path
         sodipodi:nodetypes="cc"
         inkscape:connector-curvature="0"
         id="path5028"
         d="m 77.522917,76.866667 3.509308,-3.509312"
         style="fill:none;stroke:#000000;stroke-width:0.25;stroke-linecap:butt;stroke-linejoin:miter;stroke-miterlimit:4;stroke-dasharray:none;stroke-opacity:1" />
      <path
         inkscape:connector-curvature="0"
         id="path5030"
         d="M 76.729166,76.072917 V 71.575"
         style="fill:none;stroke:#000000;stroke-width:0.25;stroke-linecap:butt;stroke-linejoin:miter;stroke-miterlimit:4;stroke-dasharray:none;stroke-opacity:1" />
      <path
         inkscape:connector-curvature="0"
         id="path5032"
         d="m 78.316666,77.660417 h 4.497916"
         style="fill:none;stroke:#000000;stroke-width:0.25;stroke-linecap:butt;stroke-linejoin:miter;stroke-miterlimit:4;stroke-dasharray:none;stroke-opacity:1" />
      <path
         inkscape:connector-curvature="0"
         id="path5034"
         d="M 75.141666,77.660417 H 70.643749"
         style="fill:none;stroke:#000000;stroke-width:0.25;stroke-linecap:butt;stroke-linejoin:miter;stroke-miterlimit:4;stroke-dasharray:none;stroke-opacity:1" />
      <path
         transform="scale(0.26458333)"
         id="path5093"
         d="m 285.26781,292.25171 -17.48416,-4.68487"
         style="fill:none;stroke:#000000;stroke-width:0.94488192;stroke-linecap:butt;stroke-linejoin:miter;stroke-miterlimit:4;stroke-dasharray:none;stroke-opacity:1"
         inkscape:connector-curvature="0" />
      <path
         transform="scale(0.26458333)"
         id="path5150"
         d="m 286.19578,291.32331 -16.11444,-9.30368"
         style="fill:none;stroke:#000000;stroke-width:0.94488192;stroke-linecap:butt;stroke-linejoin:miter;stroke-miterlimit:4;stroke-dasharray:none;stroke-opacity:1"
         inkscape:connector-curvature="0" />
      <path
         transform="scale(0.26458333)"
         id="path5153"
         d="m 287.80362,289.71546 -9.30369,-16.11448"
         style="fill:none;stroke:#000000;stroke-width:0.94488192;stroke-linecap:butt;stroke-linejoin:miter;stroke-miterlimit:4;stroke-dasharray:none;stroke-opacity:1"
         inkscape:connector-curvature="0" />
      <path
         transform="scale(0.26458333)"
         id="path5156"
         d="m 288.73201,288.78747 -4.68489,-17.48423"
         style="fill:none;stroke:#000000;stroke-width:0.94488192;stroke-linecap:butt;stroke-linejoin:miter;stroke-miterlimit:4;stroke-dasharray:none;stroke-opacity:1"
         inkscape:connector-curvature="0" />
      <path
         transform="scale(0.26458333)"
         id="path5159"
         d="m 291.268,288.78747 4.68488,-17.48423"
         style="fill:none;stroke:#000000;stroke-width:0.94488192;stroke-linecap:butt;stroke-linejoin:miter;stroke-miterlimit:4;stroke-dasharray:none;stroke-opacity:1"
         inkscape:connector-curvature="0" />
      <path
         transform="scale(0.26458333)"
         id="path5162"
         d="m 292.19636,289.71546 9.30371,-16.11448"
         style="fill:none;stroke:#000000;stroke-width:0.94488192;stroke-linecap:butt;stroke-linejoin:miter;stroke-miterlimit:4;stroke-dasharray:none;stroke-opacity:1"
         inkscape:connector-curvature="0" />
      <path
         transform="scale(0.26458333)"
         id="path5165"
         d="m 293.80421,291.32332 16.11443,-9.30367"
         style="fill:none;stroke:#000000;stroke-width:0.94488192;stroke-linecap:butt;stroke-linejoin:miter;stroke-miterlimit:4;stroke-dasharray:none;stroke-opacity:1"
         inkscape:connector-curvature="0" />
      <path
         transform="scale(0.26458333)"
         id="path5174"
         d="m 294.73226,292.25169 17.66004,-4.732"
         style="fill:none;stroke:#000000;stroke-width:0.94488192;stroke-linecap:butt;stroke-linejoin:miter;stroke-miterlimit:4;stroke-dasharray:none;stroke-opacity:1"
         inkscape:connector-curvature="0" />
    </g>
  </g>
</svg>
