<?xml version="1.0" encoding="UTF-8" standalone="no"?>
<!-- Created with Inkscape (http://www.inkscape.org/) -->

<svg
   xmlns:dc="http://purl.org/dc/elements/1.1/"
   xmlns:cc="http://creativecommons.org/ns#"
   xmlns:rdf="http://www.w3.org/1999/02/22-rdf-syntax-ns#"
   xmlns:svg="http://www.w3.org/2000/svg"
   xmlns="http://www.w3.org/2000/svg"
   xmlns:sodipodi="http://sodipodi.sourceforge.net/DTD/sodipodi-0.dtd"
   xmlns:inkscape="http://www.inkscape.org/namespaces/inkscape"
   width="8cm"
   height="8cm"
   viewBox="0 0 80 79.999998"
   version="1.1"
   id="svg8"
   inkscape:version="0.92.4 (5da689c313, 2019-01-14)"
   sodipodi:docname="runic-memet.svg">
  <defs
     id="defs2" />
  <sodipodi:namedview
     id="base"
     pagecolor="#ffffff"
     bordercolor="#666666"
     borderopacity="1.0"
     inkscape:pageopacity="0.0"
     inkscape:pageshadow="2"
     inkscape:zoom="1.979899"
     inkscape:cx="139.65776"
     inkscape:cy="138.30482"
     inkscape:document-units="mm"
     inkscape:current-layer="layer2"
     showgrid="true"
     units="cm"
     inkscape:snap-bbox="false"
     inkscape:snap-bbox-edge-midpoints="false"
     inkscape:window-width="1852"
     inkscape:window-height="1057"
     inkscape:window-x="60"
     inkscape:window-y="-8"
     inkscape:window-maximized="1"
     inkscape:snap-smooth-nodes="true"
     showguides="true"
     inkscape:snap-nodes="false"
     inkscape:object-nodes="true"
     inkscape:snap-others="false">
    <inkscape:grid
       type="xygrid"
       id="grid815"
       units="cm"
       spacingx="9.9999996"
       spacingy="9.9999996" />
    <inkscape:grid
       type="xygrid"
       id="grid1019"
       color="#3febff"
       opacity="0.1254902"
       empcolor="#3fe7ff"
       empopacity="0.25098039"
       empspacing="10"
       dotted="false"
       spacingx="0.99999996"
       spacingy="0.99999996"
       units="cm" />
  </sodipodi:namedview>
  <metadata
     id="metadata5">
    <rdf:RDF>
      <cc:Work
         rdf:about="">
        <dc:format>image/svg+xml</dc:format>
        <dc:type
           rdf:resource="http://purl.org/dc/dcmitype/StillImage" />
        <dc:title></dc:title>
      </cc:Work>
    </rdf:RDF>
  </metadata>
  <g
     inkscape:label="canva"
     inkscape:groupmode="layer"
     id="layer1"
     transform="translate(0,-217.00002)"
     style="display:inline;opacity:0.2"
     sodipodi:insensitive="true">
    <path
       style="fill:none;stroke:#dddddd;stroke-width:0.25;stroke-linecap:butt;stroke-linejoin:miter;stroke-miterlimit:4;stroke-dasharray:none;stroke-opacity:1"
       d="M 79.999991,247.00002 H 0"
       id="path872-1-9-3"
       inkscape:connector-curvature="0" />
    <path
       style="fill:none;stroke:#dddddd;stroke-width:0.25;stroke-linecap:butt;stroke-linejoin:miter;stroke-miterlimit:4;stroke-dasharray:none;stroke-opacity:1"
       d="M 79.999997,267.00002 H 5.4000007e-6"
       id="path872-1-9-2"
       inkscape:connector-curvature="0" />
    <path
       style="fill:none;stroke:#dddddd;stroke-width:0.25;stroke-linecap:butt;stroke-linejoin:miter;stroke-miterlimit:4;stroke-dasharray:none;stroke-opacity:1"
       d="M 79.999991,287.00002 H 0"
       id="path872-1-9-0"
       inkscape:connector-curvature="0" />
    <path
       style="fill:none;stroke:#dddddd;stroke-width:0.25;stroke-linecap:butt;stroke-linejoin:miter;stroke-miterlimit:4;stroke-dasharray:none;stroke-opacity:1"
       d="M 79.99999,227.00003 H 0"
       id="path872-1-9"
       inkscape:connector-curvature="0" />
    <path
       style="fill:none;stroke:#dddddd;stroke-width:0.25;stroke-linecap:butt;stroke-linejoin:miter;stroke-miterlimit:4;stroke-dasharray:none;stroke-opacity:1"
       d="m 29.999999,217.00003 v 79.99999"
       id="path872-1"
       inkscape:connector-curvature="0" />
    <path
       style="fill:none;stroke:#dddddd;stroke-width:0.25;stroke-linecap:butt;stroke-linejoin:miter;stroke-miterlimit:4;stroke-dasharray:none;stroke-opacity:1"
       d="m 49.999998,217.00003 v 79.99999"
       id="path872-3"
       inkscape:connector-curvature="0" />
    <path
       style="fill:none;stroke:#dddddd;stroke-width:0.25;stroke-linecap:butt;stroke-linejoin:miter;stroke-miterlimit:4;stroke-dasharray:none;stroke-opacity:1"
       d="m 69.999997,217.00003 v 79.99999"
       id="path872-9"
       inkscape:connector-curvature="0" />
    <path
       style="fill:none;stroke:#dddddd;stroke-width:0.25;stroke-linecap:butt;stroke-linejoin:miter;stroke-miterlimit:4;stroke-dasharray:none;stroke-opacity:1"
       d="m 9.9999995,217.00003 v 79.99999"
       id="path872"
       inkscape:connector-curvature="0" />
    <path
       style="fill:none;stroke:#aaaaaa;stroke-width:0.5;stroke-linecap:butt;stroke-linejoin:miter;stroke-miterlimit:4;stroke-dasharray:none;stroke-opacity:1"
       d="M 0,277.00002 H 79.999996"
       id="path855-3"
       inkscape:connector-curvature="0" />
    <path
       style="fill:none;stroke:#aaaaaa;stroke-width:0.5;stroke-linecap:butt;stroke-linejoin:miter;stroke-miterlimit:4;stroke-dasharray:none;stroke-opacity:1"
       d="M 0,237.00002 H 79.999995"
       id="path855"
       inkscape:connector-curvature="0" />
    <path
       style="fill:none;stroke:#aaaaaa;stroke-width:0.5;stroke-linecap:butt;stroke-linejoin:miter;stroke-miterlimit:4;stroke-dasharray:none;stroke-opacity:1"
       d="m 59.999998,217.00003 v 79.99999"
       id="path823-2"
       inkscape:connector-curvature="0" />
    <path
       style="fill:none;stroke:#aaaaaa;stroke-width:0.5;stroke-linecap:butt;stroke-linejoin:miter;stroke-miterlimit:4;stroke-dasharray:none;stroke-opacity:1"
       d="m 19.999999,217.00003 v 79.99999"
       id="path823"
       inkscape:connector-curvature="0" />
    <rect
       style="opacity:1;vector-effect:none;fill:none;fill-opacity:1;fill-rule:nonzero;stroke:#444444;stroke-width:1;stroke-linecap:square;stroke-linejoin:miter;stroke-miterlimit:3.9000001;stroke-dasharray:none;stroke-dashoffset:0;stroke-opacity:1;paint-order:normal"
       id="rect817"
       width="79.999992"
       height="79.999992"
       x="0"
       y="217.00003" />
    <path
       style="fill:none;stroke:#444444;stroke-width:0.5;stroke-linecap:butt;stroke-linejoin:miter;stroke-miterlimit:4;stroke-dasharray:none;stroke-opacity:1"
       d="m 39.999999,217.00003 v 79.99999"
       id="path819"
       inkscape:connector-curvature="0" />
    <path
       style="fill:none;stroke:#444444;stroke-width:0.5;stroke-linecap:butt;stroke-linejoin:miter;stroke-miterlimit:4;stroke-dasharray:none;stroke-opacity:1"
       d="M 0,257.00002 H 79.999995"
       id="path821"
       inkscape:connector-curvature="0" />
    <ellipse
       style="opacity:1;vector-effect:none;fill:none;fill-opacity:1;fill-rule:nonzero;stroke:#444444;stroke-width:0.5;stroke-linecap:square;stroke-linejoin:miter;stroke-miterlimit:4;stroke-dasharray:none;stroke-dashoffset:0;stroke-opacity:0.94117647;paint-order:normal"
       id="path943"
       cx="40"
       cy="257.00003"
       rx="39.843849"
       ry="39.843853" />
    <path
       style="fill:none;stroke:#444444;stroke-width:0.5;stroke-linecap:butt;stroke-linejoin:miter;stroke-miterlimit:4;stroke-dasharray:none;stroke-opacity:1"
       d="m 0,217.00003 c 0,0 0,39.99999 39.999999,39.99999 39.999996,0 39.999996,-39.99999 39.999996,-39.99999"
       id="path945"
       inkscape:connector-curvature="0" />
    <path
       style="fill:none;stroke:#444444;stroke-width:0.5;stroke-linecap:butt;stroke-linejoin:miter;stroke-miterlimit:4;stroke-dasharray:none;stroke-opacity:1"
       d="m 79.999996,297.25001 c 0,0 0,-39.99999 -39.999999,-39.99999 C 2.9999969e-7,257.25002 2.9999969e-7,297.25001 2.9999969e-7,297.25001"
       id="path945-1"
       inkscape:connector-curvature="0" />
    <path
       style="fill:none;stroke:#444444;stroke-width:0.5;stroke-linecap:butt;stroke-linejoin:miter;stroke-miterlimit:4;stroke-dasharray:none;stroke-opacity:1"
       d="m 80.12499,217.12502 c 0,0 -39.99999,0 -39.99999,40 0,40 39.99999,40 39.99999,40"
       id="path945-1-9"
       inkscape:connector-curvature="0" />
    <path
       style="fill:none;stroke:#444444;stroke-width:0.5;stroke-linecap:butt;stroke-linejoin:miter;stroke-miterlimit:4;stroke-dasharray:none;stroke-opacity:1"
       d="m -0.1249963,297.25002 c 0,0 39.9999913,0 39.9999913,-40 0,-40 -39.9999913,-40 -39.9999913,-40"
       id="path945-1-9-5"
       inkscape:connector-curvature="0" />
  </g>
  <g
     inkscape:groupmode="layer"
     id="layer2"
     inkscape:label="rune">
    <path
       style="fill:#40224a;fill-opacity:1;stroke-width:0.06423831"
       d="m 43.674548,71.665756 c -0.860815,-0.122833 -1.576358,-0.430305 -2.157352,-0.926999 -0.324578,-0.27748 -0.651962,-0.753581 -0.651604,-0.947594 5.32e-4,-0.269212 0.23489,-0.518867 0.717768,-0.764511 0.262189,-0.133366 0.510945,-0.270104 0.552792,-0.303848 0.05027,-0.0405 0.148107,-0.02449 0.288406,0.04729 0.116776,0.0598 0.416736,0.15049 0.666577,0.201647 0.249839,0.0511 0.626146,0.164579 0.836237,0.252066 0.359392,0.149651 0.406465,0.154494 0.795911,0.08178 0.513245,-0.09582 0.757152,-0.2861 0.882989,-0.688831 0.05133,-0.164288 0.153527,-0.463339 0.227091,-0.664545 0.09952,-0.272187 0.133749,-0.519317 0.133749,-0.965487 0,-0.550254 -0.01729,-0.633264 -0.209883,-1.007599 -0.332806,-0.646849 -1.317782,-1.539614 -2.14726,-1.946236 -0.439424,-0.215405 -0.475514,-0.22196 -1.291585,-0.234447 -1.001176,-0.01531 -1.250819,0.04637 -2.389434,0.59037 -0.798386,0.38145 -2.637288,1.015521 -3.427294,1.18177 -1.007116,0.211929 -2.358653,0.180504 -3.256658,-0.07574 -1.208891,-0.34493 -2.45414,-1.287923 -2.926316,-2.216019 -0.347363,-0.682762 -0.447716,-1.142992 -0.447793,-2.053601 -6.5e-5,-1.002773 0.180462,-1.776858 0.62662,-2.686597 0.739214,-1.507281 2.423243,-2.594073 4.814026,-3.106755 0.96719,-0.207402 2.928148,-0.211664 3.971623,-0.0087 0.945916,0.184046 1.473051,0.3537 1.751171,0.563604 l 0.229603,0.17328 1.021213,-0.224652 1.021212,-0.22466 0.767068,-0.757247 c 0.854985,-0.844043 1.780151,-1.606741 2.402892,-1.980925 l 0.412335,-0.247761 0.415231,-0.957611 c 1.119849,-2.582601 1.180032,-2.746996 1.24659,-3.405157 0.09403,-0.929798 0.127495,-3.046865 0.05677,-3.590924 -0.03427,-0.263582 -0.102983,-0.824297 -0.1527,-1.24603 -0.125072,-1.06094 -0.224327,-1.333606 -0.773472,-2.124829 -0.262143,-0.377702 -0.751918,-1.091371 -1.088389,-1.585926 -0.496114,-0.729205 -0.706358,-0.976838 -1.112138,-1.309933 -1.008725,-0.828025 -1.8794,-1.591294 -2.230031,-1.954928 -0.486224,-0.504248 -1.052902,-0.787749 -1.577919,-0.789394 -0.21311,-6.35e-4 -0.677933,-0.04192 -1.032937,-0.09169 l -0.645464,-0.09047 -0.346717,0.259022 c -0.928499,0.693636 -1.184832,1.219155 -1.568294,3.21521 -0.07427,0.386588 -0.141129,0.808969 -0.148583,0.93862 -0.01808,0.314663 -0.111169,0.409672 -0.489274,0.499427 -0.645946,0.153324 -1.260965,-0.07288 -1.688436,-0.621017 -0.269657,-0.345773 -0.280712,-0.377824 -0.302006,-0.875516 -0.02851,-0.666255 0.0966,-1.142948 0.538832,-2.053195 0.38341,-0.789172 0.723767,-1.159862 1.603978,-1.746941 0.826903,-0.551517 1.012795,-0.617944 2.367551,-0.845944 0.677898,-0.114088 1.081448,-0.136446 2.518592,-0.139515 1.473593,-0.0032 1.823499,0.01556 2.518589,0.134542 1.920347,0.328751 2.856011,0.703983 3.899467,1.563823 2.255269,1.858413 2.466008,2.074079 3.479746,3.561058 0.155734,0.22844 0.37946,0.631003 0.497164,0.894592 0.206516,0.462466 0.217292,0.52846 0.307759,1.88502 0.08429,1.263922 0.08335,1.49283 -0.0094,2.268422 -0.05671,0.474452 -0.148112,1.242694 -0.203121,1.707217 -0.06506,0.549403 -0.211636,1.252496 -0.419397,2.011764 -0.175663,0.641958 -0.319387,1.199726 -0.319387,1.239474 0,0.03976 -0.161794,0.615313 -0.359548,1.279033 -0.270533,0.908004 -0.472608,1.436146 -0.816224,2.133301 -0.594848,1.206871 -0.796394,1.488206 -1.675368,2.338602 -0.741302,0.717193 -1.073749,0.945295 -2.167839,1.487373 -1.10684,0.548392 -2.621267,0.820472 -4.181384,0.751214 -1.567602,-0.06959 -2.638501,-0.152358 -2.972825,-0.229753 -0.223946,-0.05183 -0.67912,-0.06135 -1.485323,-0.03106 l -1.162426,0.04364 -0.612318,0.288303 c -0.788373,0.371193 -1.35266,0.906474 -1.701243,1.613797 -0.364559,0.739743 -0.6985,2.020783 -0.699601,2.683764 -0.0013,0.853921 0.293495,1.593067 0.754998,1.892269 0.143198,0.09284 0.188217,0.08955 0.593058,-0.04326 0.459514,-0.150745 1.472953,-0.656866 1.93871,-0.9682 1.213363,-0.811085 3.926805,-1.244117 5.796845,-0.925111 0.319668,0.0545 0.842483,0.133939 1.161812,0.176468 1.360941,0.181272 2.644009,0.743231 3.481642,1.524901 0.405582,0.378484 1.253934,1.459096 1.461432,1.861538 0.06858,0.133024 0.244994,0.596263 0.392019,1.029414 0.242733,0.715115 0.263981,0.828681 0.231037,1.234844 -0.01994,0.24601 -0.081,0.59107 -0.135642,0.766791 -0.134737,0.433242 -0.967347,1.932028 -1.214283,2.185833 -0.7994,0.821632 -3.34408,1.360583 -5.184279,1.097999 z M 35.795879,46.340917 c -0.782863,-0.148451 -1.653213,-0.418074 -2.421723,-0.750216 -1.282375,-0.554223 -1.422023,-0.620007 -1.633598,-0.769526 -0.113503,-0.08021 -0.308204,-0.199595 -0.432667,-0.265298 -0.489488,-0.258398 -1.17388,-0.833371 -2.012397,-1.690652 -0.82261,-0.841014 -0.892158,-0.93192 -1.113837,-1.455908 -0.130044,-0.307383 -0.292375,-0.770174 -0.360734,-1.028413 -0.06836,-0.258241 -0.141989,-0.497865 -0.16362,-0.5325 -0.111654,-0.178756 -0.303228,-1.030682 -0.42332,-1.882474 -0.190866,-1.353818 -0.194548,-2.791477 -0.0101,-3.961749 0.07753,-0.492027 0.2012,-1.323068 0.274827,-1.846766 0.128427,-0.913467 0.192197,-1.138583 0.659893,-2.329461 0.163127,-0.415362 0.525774,-0.913205 1.302846,-1.78856 1.458581,-1.64306 2.950022,-2.523104 5.494948,-3.24237 1.802682,-0.509486 2.388937,-0.61169 3.722466,-0.648954 1.210007,-0.03382 1.721725,0.01829 2.430229,0.247463 0.48398,0.156545 0.854154,0.469073 0.854154,0.721139 0,0.369309 -0.645697,0.736736 -1.577144,0.897457 -1.177861,0.203238 -3.120387,0.850882 -3.77792,1.259569 -0.998892,0.620859 -2.226485,1.768388 -2.866038,2.679112 -0.397016,0.565351 -1.001804,1.960872 -1.206995,2.785085 -0.120046,0.482202 -0.179636,0.93448 -0.4152,3.151307 -0.131688,1.239283 -0.01075,2.304912 0.384352,3.386654 0.135268,0.370348 0.384506,0.944813 0.887764,2.046189 0.124009,0.271395 0.376694,0.566431 1.094542,1.277984 l 0.93331,0.925124 1.253563,0.624795 c 1.417304,0.706415 1.461447,0.715517 2.395754,0.493888 0.295278,-0.07004 0.646722,-0.127554 0.780985,-0.127796 0.199113,-3.87e-4 0.319594,-0.06231 0.653507,-0.335922 0.225163,-0.18451 0.586502,-0.476592 0.802974,-0.649072 0.520542,-0.414758 0.680435,-0.737189 0.684216,-1.379725 0.0019,-0.309543 -0.04975,-0.669296 -0.145618,-1.015971 -0.142358,-0.514721 -0.197713,-1.268691 -0.104152,-1.41849 0.103538,-0.16576 0.584104,-0.31042 1.035845,-0.311798 0.521629,-0.0013 0.803737,0.07505 1.112982,0.302366 0.352762,0.259313 0.462236,0.497679 0.4621,1.006164 -1.28e-4,0.530284 -0.04665,0.716527 -0.429964,1.72182 -0.160081,0.419834 -0.319363,0.937242 -0.353959,1.149801 -0.120526,0.740512 -0.46237,1.238542 -1.251213,1.822877 -0.520224,0.385357 -0.830438,0.510523 -1.533376,0.61866 -0.363455,0.05589 -0.820661,0.161428 -1.016014,0.23446 -0.318938,0.11924 -0.516652,0.134458 -1.937376,0.149112 -1.11779,0.01149 -1.714879,-0.0089 -2.034248,-0.0694 z m 3.907044,-25.406712 c -0.644859,-0.07635 -1.168019,-0.276745 -1.519237,-0.581933 -0.07193,-0.0625 -0.333476,-0.17505 -0.581213,-0.250103 -1.039046,-0.314788 -1.823863,-0.890551 -2.148618,-1.576285 -0.15874,-0.335182 -0.173922,-0.432579 -0.167036,-1.071584 0.01381,-1.281688 0.286788,-2.375179 0.819893,-3.284353 0.156639,-0.267133 0.335053,-0.658225 0.396476,-0.869092 0.06143,-0.210867 0.280015,-0.670941 0.485755,-1.022386 0.925793,-1.581434 1.057764,-1.797592 1.198612,-1.963216 0.08228,-0.09676 0.19769,-0.3395924 0.256462,-0.5396342 0.200385,-0.6820379 0.650065,-0.9454313 1.614092,-0.9454313 0.591722,0 0.951156,0.09044 1.223904,0.3079393 0.172484,0.137546 0.19488,0.1999882 0.23519,0.6557449 0.03501,0.3958193 0.09194,0.5926953 0.265804,0.9190673 0.373148,0.700489 0.843558,1.487551 1.062521,1.777738 0.114586,0.151859 0.257578,0.410651 0.317761,0.575093 0.148622,0.406093 0.36891,0.871801 0.599363,1.267116 0.394695,0.677052 0.556212,1.293207 0.785386,2.996096 0.09413,0.699488 0.02066,1.146831 -0.260383,1.585325 -0.249999,0.390057 -0.851531,0.818468 -1.492765,1.063151 -0.286777,0.109428 -0.598491,0.270357 -0.692698,0.357618 -0.267897,0.248149 -0.773354,0.465696 -1.324398,0.570018 -0.277761,0.05258 -0.538788,0.09183 -0.580063,0.08721 -0.04127,-0.0046 -0.263936,-0.03076 -0.494808,-0.0581 z"
       id="path12935"
       inkscape:connector-curvature="0" />
  </g>
</svg>
