<?xml version="1.0" encoding="UTF-8" standalone="no"?>
<!-- Created with Inkscape (http://www.inkscape.org/) -->

<svg
   xmlns:dc="http://purl.org/dc/elements/1.1/"
   xmlns:cc="http://creativecommons.org/ns#"
   xmlns:rdf="http://www.w3.org/1999/02/22-rdf-syntax-ns#"
   xmlns:svg="http://www.w3.org/2000/svg"
   xmlns="http://www.w3.org/2000/svg"
   xmlns:sodipodi="http://sodipodi.sourceforge.net/DTD/sodipodi-0.dtd"
   xmlns:inkscape="http://www.inkscape.org/namespaces/inkscape"
   width="8cm"
   height="8cm"
   viewBox="0 0 80 79.999998"
   version="1.1"
   id="svg8"
   inkscape:version="0.92.4 (5da689c313, 2019-01-14)"
   sodipodi:docname="runic-temeter.svg">
  <defs
     id="defs2" />
  <sodipodi:namedview
     id="base"
     pagecolor="#ffffff"
     bordercolor="#666666"
     borderopacity="1.0"
     inkscape:pageopacity="0.0"
     inkscape:pageshadow="2"
     inkscape:zoom="1.4"
     inkscape:cx="246.01214"
     inkscape:cy="167.58337"
     inkscape:document-units="mm"
     inkscape:current-layer="layer2"
     showgrid="true"
     units="cm"
     inkscape:snap-bbox="false"
     inkscape:snap-bbox-edge-midpoints="false"
     inkscape:window-width="1852"
     inkscape:window-height="1057"
     inkscape:window-x="60"
     inkscape:window-y="-8"
     inkscape:window-maximized="1"
     inkscape:snap-smooth-nodes="true"
     showguides="true"
     inkscape:snap-nodes="false"
     inkscape:object-nodes="true"
     inkscape:snap-others="false">
    <inkscape:grid
       type="xygrid"
       id="grid815"
       units="cm"
       spacingx="9.9999996"
       spacingy="9.9999996" />
    <inkscape:grid
       type="xygrid"
       id="grid1019"
       color="#3febff"
       opacity="0.1254902"
       empcolor="#3fe7ff"
       empopacity="0.25098039"
       empspacing="10"
       dotted="false"
       spacingx="0.99999996"
       spacingy="0.99999996"
       units="cm" />
  </sodipodi:namedview>
  <metadata
     id="metadata5">
    <rdf:RDF>
      <cc:Work
         rdf:about="">
        <dc:format>image/svg+xml</dc:format>
        <dc:type
           rdf:resource="http://purl.org/dc/dcmitype/StillImage" />
        <dc:title></dc:title>
      </cc:Work>
    </rdf:RDF>
  </metadata>
  <g
     inkscape:label="canva"
     inkscape:groupmode="layer"
     id="layer1"
     transform="translate(0,-217.00002)"
     style="display:inline;opacity:0.2"
     sodipodi:insensitive="true">
    <path
       style="fill:none;stroke:#dddddd;stroke-width:0.25;stroke-linecap:butt;stroke-linejoin:miter;stroke-miterlimit:4;stroke-dasharray:none;stroke-opacity:1"
       d="M 79.999991,247.00002 H 0"
       id="path872-1-9-3"
       inkscape:connector-curvature="0" />
    <path
       style="fill:none;stroke:#dddddd;stroke-width:0.25;stroke-linecap:butt;stroke-linejoin:miter;stroke-miterlimit:4;stroke-dasharray:none;stroke-opacity:1"
       d="M 79.999997,267.00002 H 5.4000007e-6"
       id="path872-1-9-2"
       inkscape:connector-curvature="0" />
    <path
       style="fill:none;stroke:#dddddd;stroke-width:0.25;stroke-linecap:butt;stroke-linejoin:miter;stroke-miterlimit:4;stroke-dasharray:none;stroke-opacity:1"
       d="M 79.999991,287.00002 H 0"
       id="path872-1-9-0"
       inkscape:connector-curvature="0" />
    <path
       style="fill:none;stroke:#dddddd;stroke-width:0.25;stroke-linecap:butt;stroke-linejoin:miter;stroke-miterlimit:4;stroke-dasharray:none;stroke-opacity:1"
       d="M 79.99999,227.00003 H 0"
       id="path872-1-9"
       inkscape:connector-curvature="0" />
    <path
       style="fill:none;stroke:#dddddd;stroke-width:0.25;stroke-linecap:butt;stroke-linejoin:miter;stroke-miterlimit:4;stroke-dasharray:none;stroke-opacity:1"
       d="m 29.999999,217.00003 v 79.99999"
       id="path872-1"
       inkscape:connector-curvature="0" />
    <path
       style="fill:none;stroke:#dddddd;stroke-width:0.25;stroke-linecap:butt;stroke-linejoin:miter;stroke-miterlimit:4;stroke-dasharray:none;stroke-opacity:1"
       d="m 49.999998,217.00003 v 79.99999"
       id="path872-3"
       inkscape:connector-curvature="0" />
    <path
       style="fill:none;stroke:#dddddd;stroke-width:0.25;stroke-linecap:butt;stroke-linejoin:miter;stroke-miterlimit:4;stroke-dasharray:none;stroke-opacity:1"
       d="m 69.999997,217.00003 v 79.99999"
       id="path872-9"
       inkscape:connector-curvature="0" />
    <path
       style="fill:none;stroke:#dddddd;stroke-width:0.25;stroke-linecap:butt;stroke-linejoin:miter;stroke-miterlimit:4;stroke-dasharray:none;stroke-opacity:1"
       d="m 9.9999995,217.00003 v 79.99999"
       id="path872"
       inkscape:connector-curvature="0" />
    <path
       style="fill:none;stroke:#aaaaaa;stroke-width:0.5;stroke-linecap:butt;stroke-linejoin:miter;stroke-miterlimit:4;stroke-dasharray:none;stroke-opacity:1"
       d="M 0,277.00002 H 79.999996"
       id="path855-3"
       inkscape:connector-curvature="0" />
    <path
       style="fill:none;stroke:#aaaaaa;stroke-width:0.5;stroke-linecap:butt;stroke-linejoin:miter;stroke-miterlimit:4;stroke-dasharray:none;stroke-opacity:1"
       d="M 0,237.00002 H 79.999995"
       id="path855"
       inkscape:connector-curvature="0" />
    <path
       style="fill:none;stroke:#aaaaaa;stroke-width:0.5;stroke-linecap:butt;stroke-linejoin:miter;stroke-miterlimit:4;stroke-dasharray:none;stroke-opacity:1"
       d="m 59.999998,217.00003 v 79.99999"
       id="path823-2"
       inkscape:connector-curvature="0" />
    <path
       style="fill:none;stroke:#aaaaaa;stroke-width:0.5;stroke-linecap:butt;stroke-linejoin:miter;stroke-miterlimit:4;stroke-dasharray:none;stroke-opacity:1"
       d="m 19.999999,217.00003 v 79.99999"
       id="path823"
       inkscape:connector-curvature="0" />
    <rect
       style="opacity:1;vector-effect:none;fill:none;fill-opacity:1;fill-rule:nonzero;stroke:#444444;stroke-width:1;stroke-linecap:square;stroke-linejoin:miter;stroke-miterlimit:3.9000001;stroke-dasharray:none;stroke-dashoffset:0;stroke-opacity:1;paint-order:normal"
       id="rect817"
       width="79.999992"
       height="79.999992"
       x="0"
       y="217.00003" />
    <path
       style="fill:none;stroke:#444444;stroke-width:0.5;stroke-linecap:butt;stroke-linejoin:miter;stroke-miterlimit:4;stroke-dasharray:none;stroke-opacity:1"
       d="m 39.999999,217.00003 v 79.99999"
       id="path819"
       inkscape:connector-curvature="0" />
    <path
       style="fill:none;stroke:#444444;stroke-width:0.5;stroke-linecap:butt;stroke-linejoin:miter;stroke-miterlimit:4;stroke-dasharray:none;stroke-opacity:1"
       d="M 0,257.00002 H 79.999995"
       id="path821"
       inkscape:connector-curvature="0" />
    <ellipse
       style="opacity:1;vector-effect:none;fill:none;fill-opacity:1;fill-rule:nonzero;stroke:#444444;stroke-width:0.5;stroke-linecap:square;stroke-linejoin:miter;stroke-miterlimit:4;stroke-dasharray:none;stroke-dashoffset:0;stroke-opacity:0.94117647;paint-order:normal"
       id="path943"
       cx="40"
       cy="257.00003"
       rx="39.843849"
       ry="39.843853" />
    <path
       style="fill:none;stroke:#444444;stroke-width:0.5;stroke-linecap:butt;stroke-linejoin:miter;stroke-miterlimit:4;stroke-dasharray:none;stroke-opacity:1"
       d="m 0,217.00003 c 0,0 0,39.99999 39.999999,39.99999 39.999996,0 39.999996,-39.99999 39.999996,-39.99999"
       id="path945"
       inkscape:connector-curvature="0" />
    <path
       style="fill:none;stroke:#444444;stroke-width:0.5;stroke-linecap:butt;stroke-linejoin:miter;stroke-miterlimit:4;stroke-dasharray:none;stroke-opacity:1"
       d="m 79.999996,297.25001 c 0,0 0,-39.99999 -39.999999,-39.99999 C 2.9999969e-7,257.25002 2.9999969e-7,297.25001 2.9999969e-7,297.25001"
       id="path945-1"
       inkscape:connector-curvature="0" />
    <path
       style="fill:none;stroke:#444444;stroke-width:0.5;stroke-linecap:butt;stroke-linejoin:miter;stroke-miterlimit:4;stroke-dasharray:none;stroke-opacity:1"
       d="m 80.12499,217.12502 c 0,0 -39.99999,0 -39.99999,40 0,40 39.99999,40 39.99999,40"
       id="path945-1-9"
       inkscape:connector-curvature="0" />
    <path
       style="fill:none;stroke:#444444;stroke-width:0.5;stroke-linecap:butt;stroke-linejoin:miter;stroke-miterlimit:4;stroke-dasharray:none;stroke-opacity:1"
       d="m -0.1249963,297.25002 c 0,0 39.9999913,0 39.9999913,-40 0,-40 -39.9999913,-40 -39.9999913,-40"
       id="path945-1-9-5"
       inkscape:connector-curvature="0" />
  </g>
  <g
     inkscape:groupmode="layer"
     id="layer2"
     inkscape:label="rune">
    <path
       style="fill:#40224a;stroke-width:0.06236169;fill-opacity:1"
       d="m 47.493753,72.938537 c -0.0661,-0.07352 -0.274516,-0.231575 -0.46316,-0.351188 -0.706692,-0.448099 -0.935631,-0.797516 -1.053096,-1.607253 -0.15117,-1.042088 -0.343075,-1.583165 -0.833314,-2.349524 -0.265665,-0.415303 -2.831164,-2.963695 -3.704237,-3.679544 -0.925826,-0.759084 -3.577697,-2.511281 -4.738598,-3.130966 -1.233032,-0.658183 -1.417408,-0.698597 -3.42151,-0.749858 -1.712359,-0.0438 -2.746318,-0.128057 -3.208964,-0.261467 -0.72747,-0.209779 -1.249898,-0.599185 -1.249898,-0.931637 0,-0.361393 0.712408,-0.85593 1.652585,-1.147177 0.240094,-0.07439 0.787317,-0.189239 1.216054,-0.255246 0.428736,-0.06602 0.928491,-0.148295 1.110566,-0.182858 1.656564,-0.314466 3.37079,-0.386211 5.01004,-0.209685 l 0.975767,0.105074 0.583276,-0.397383 c 0.542292,-0.369458 0.78318,-0.56545 1.735516,-1.41202 0.198893,-0.176803 0.56041,-0.45243 0.803372,-0.612489 0.24296,-0.160068 0.575847,-0.409604 0.739749,-0.554533 0.1639,-0.144919 0.508471,-0.43498 0.765714,-0.644569 1.066351,-0.868809 1.592178,-1.60862 2.107766,-2.965508 0.599313,-1.577234 0.595037,-2.038952 -0.04114,-4.442779 -0.243453,-0.919888 -0.326329,-1.155946 -0.908589,-2.588015 -0.579716,-1.425799 -1.561627,-2.979846 -2.181552,-3.452688 -0.445592,-0.339869 -1.545107,-0.83427 -2.032202,-0.913786 -1.063242,-0.173578 -1.683766,-0.495239 -1.683766,-0.872825 0,-0.372851 0.59811,-0.66673 1.716866,-0.843566 0.564065,-0.08917 0.912263,-0.101166 1.984998,-0.06846 1.452773,0.04427 2.280888,0.148381 3.342883,0.420117 3.343753,0.855591 5.128965,2.153145 6.266642,4.554799 0.456264,0.963186 0.845996,2.738902 0.843731,3.844251 -0.0018,0.871291 -0.122112,1.965272 -0.282561,2.569025 -0.329648,1.240435 -1.028913,2.789462 -1.760141,3.89911 -0.271224,0.411591 -0.677107,1.028972 -0.901963,1.371956 -0.224854,0.34299 -0.623828,0.848127 -0.886608,1.122511 -0.262779,0.274393 -0.623516,0.663996 -0.801638,0.865773 -0.178122,0.201787 -0.534329,0.531757 -0.791571,0.733257 -0.257242,0.201511 -0.734307,0.578219 -1.060149,0.83714 -0.542481,0.43106 -2.05426,1.274358 -2.284554,1.274358 -0.221432,0 -0.09561,0.143322 0.360662,0.410813 1.076581,0.631155 2.644014,1.902604 4.081183,3.31052 0.948584,0.929266 1.170808,1.217263 1.724003,2.23421 0.499628,0.918472 0.608749,1.23131 0.608749,1.745232 0,0.576068 -0.09861,0.968468 -0.443778,1.76573 -0.167794,0.387579 -0.419326,1.052768 -0.558961,1.478207 -0.291392,0.887823 -0.463603,1.159084 -0.935866,1.4742 -0.264488,0.176479 -1.027745,0.620646 -1.246394,0.725327 -0.01965,0.0094 -0.08981,-0.04309 -0.155905,-0.116601 z M 35.649583,50.422944 C 34.431476,50.28861 33.397391,49.920598 32.301832,49.231533 31.406796,48.668589 30.802311,48.070592 29.89054,46.84612 c -1.149282,-1.543438 -1.554043,-2.495953 -1.812695,-4.265772 -0.222273,-1.520906 -0.16357,-3.068763 0.185889,-4.901399 0.395032,-2.071637 0.450098,-2.321601 0.631936,-2.868637 0.407597,-1.226197 0.858463,-2.010722 1.607055,-2.796348 1.353374,-1.420321 3.057138,-2.179343 6.051102,-2.695745 0.850573,-0.146707 2.869346,-0.09632 3.601787,0.0899 1.142513,0.29049 1.752609,0.80384 1.505837,1.267052 -0.154269,0.28958 -0.646352,0.554636 -1.413337,0.761285 -0.66051,0.177966 -1.572712,0.67994 -2.073242,1.140885 -0.552193,0.50852 -1.084091,1.31764 -1.750797,2.663293 -0.469622,0.947858 -0.703516,1.515039 -0.990097,2.400926 -0.509874,1.576127 -0.580072,1.878332 -0.815825,3.512171 l -0.204446,1.416866 0.103136,0.578707 c 0.127376,0.714704 0.548688,2.365082 0.686666,2.689851 0.145041,0.341385 0.944561,1.51783 1.249337,1.838329 0.620475,0.652468 1.681659,1.3201 2.098273,1.3201 0.306405,0 1.013862,0.180046 1.234381,0.31415 0.528933,0.321669 0.25025,0.725992 -0.662762,0.961567 -0.732158,0.188908 -2.447067,0.262787 -3.473161,0.149625 z M 49.898827,30.542627 c -0.714228,-0.217256 -0.812594,-0.624023 -0.25352,-1.048371 0.506564,-0.384488 2.009046,-1.961644 2.257646,-2.369857 0.141051,-0.231606 0.348096,-0.547393 0.460102,-0.701736 0.345981,-0.476772 0.765032,-1.46265 0.963734,-2.267336 0.488329,-1.977572 0.498367,-3.293142 0.03932,-5.153703 -0.535824,-2.171778 -0.758183,-2.764201 -1.316052,-3.50633 -0.154396,-0.205398 -0.410609,-0.615991 -0.56936,-0.912441 -0.95858,-1.790017 -1.055455,-1.945113 -1.803262,-2.887064 -0.511925,-0.644832 -0.641711,-0.928996 -0.524408,-1.148175 0.1195,-0.223289 0.517679,-0.352635 1.081016,-0.351148 0.590189,0.0016 1.132771,0.161395 1.904539,0.561078 0.294657,0.152595 1.186046,0.608369 1.980862,1.012819 0.794816,0.404457 1.664763,0.882582 1.933211,1.062493 0.562747,0.377142 1.960306,1.749722 2.439505,2.395882 0.893855,1.205301 1.296328,2.728096 1.244419,4.708308 -0.02333,0.888393 -0.04419,1.032205 -0.257908,1.777306 -0.276931,0.96533 -0.591675,1.63508 -1.313863,2.795761 -0.295178,0.474409 -0.679301,1.147913 -0.853599,1.496685 -0.461156,0.922765 -0.815097,1.424446 -1.449691,2.054818 -0.734696,0.72982 -1.229705,1.099 -1.929973,1.439415 -0.837311,0.407027 -2.261976,0.954167 -2.687404,1.032093 -0.416666,0.07629 -1.109585,0.08122 -1.345318,0.0095 z m -21.639105,-0.23344 c -0.956209,-0.155024 -3.00431,-0.61902 -3.388822,-0.767735 -0.962368,-0.372194 -1.73214,-0.991291 -2.865022,-2.304221 -0.955521,-1.10739 -1.446739,-1.954703 -1.760104,-3.036057 -0.53838,-1.857842 -0.631746,-3.566336 -0.277328,-5.074828 0.278411,-1.184993 0.796703,-2.486047 1.280995,-3.215667 0.363435,-0.547536 1.885188,-2.081503 2.441213,-2.460805 0.266408,-0.181737 0.680816,-0.47806 0.920907,-0.6585 0.559562,-0.420537 2.286714,-1.402929 3.211629,-1.826748 1.77383,-0.812821 1.820253,-0.827541 2.650371,-0.840673 0.849816,-0.01344 1.310166,0.203383 1.175716,0.553758 -0.02373,0.0619 -0.361694,0.465719 -0.751002,0.897444 -0.515932,0.572138 -0.770143,0.911746 -0.937667,1.252657 -0.126409,0.257244 -0.360162,0.664152 -0.519451,0.90425 -0.159289,0.240089 -0.37101,0.566186 -0.470489,0.724648 -0.09949,0.158463 -0.339045,0.523281 -0.53237,0.810701 -0.193324,0.287421 -0.523059,0.864098 -0.732744,1.281505 -0.866762,1.725412 -1.331138,4.306636 -1.130192,6.282138 0.104719,1.029486 0.508167,2.541038 0.89869,3.367022 0.311213,0.658248 1.191206,2.181833 1.403434,2.429869 0.05468,0.06387 0.394055,0.264178 0.754192,0.445093 0.872698,0.438397 1.048424,0.645298 0.792835,0.933516 -0.19204,0.216548 -0.751782,0.346849 -1.445144,0.336406 -0.310057,-0.0048 -0.6339,-0.01985 -0.719647,-0.03376 z m 12.708621,-8.816732 c -0.05869,-0.03423 -0.435415,-0.145799 -0.837167,-0.247964 -0.88104,-0.224042 -1.255826,-0.389936 -1.699655,-0.752343 -0.18488,-0.150959 -0.519043,-0.401011 -0.742584,-0.55567 -0.725033,-0.501628 -0.914659,-0.928995 -1.232776,-2.778369 -0.138223,-0.803564 -0.154806,-1.038703 -0.120677,-1.711103 0.06496,-1.27986 0.134329,-1.736187 0.395463,-2.601541 0.382206,-1.266571 0.830697,-2.071533 1.482191,-2.660282 0.465001,-0.4202133 0.658763,-0.5186557 1.205269,-0.6123778 0.51017,-0.087492 1.160922,-0.00631 1.550666,0.1935004 0.527558,0.2704234 1.601372,1.5989294 2.020919,2.5002534 0.135706,0.29154 0.324895,0.684416 0.420418,0.873062 0.237936,0.469886 0.296741,0.751962 0.404025,1.938045 0.101461,1.121793 0.05041,3.34385 -0.08872,3.860515 -0.09198,0.341574 -0.329826,0.700574 -0.601397,0.907705 -0.117289,0.08947 -0.272031,0.287706 -0.343875,0.440548 -0.150734,0.320671 -0.443686,0.58217 -0.891673,0.795926 -0.173153,0.08263 -0.382857,0.223534 -0.466009,0.313153 -0.160225,0.172686 -0.280482,0.19834 -0.454416,0.09694 z"
       id="path13520"
       inkscape:connector-curvature="0" />
  </g>
</svg>
