<?xml version="1.0" encoding="UTF-8" standalone="no"?>
<!-- Created with Inkscape (http://www.inkscape.org/) -->

<svg
   xmlns:dc="http://purl.org/dc/elements/1.1/"
   xmlns:cc="http://creativecommons.org/ns#"
   xmlns:rdf="http://www.w3.org/1999/02/22-rdf-syntax-ns#"
   xmlns:svg="http://www.w3.org/2000/svg"
   xmlns="http://www.w3.org/2000/svg"
   xmlns:sodipodi="http://sodipodi.sourceforge.net/DTD/sodipodi-0.dtd"
   xmlns:inkscape="http://www.inkscape.org/namespaces/inkscape"
   width="8cm"
   height="8cm"
   viewBox="0 0 80 79.999998"
   version="1.1"
   id="svg8"
   inkscape:version="0.92.4 (5da689c313, 2019-01-14)"
   sodipodi:docname="runic-kemet.svg">
  <defs
     id="defs2" />
  <sodipodi:namedview
     id="base"
     pagecolor="#ffffff"
     bordercolor="#666666"
     borderopacity="1.0"
     inkscape:pageopacity="0.0"
     inkscape:pageshadow="2"
     inkscape:zoom="1.4"
     inkscape:cx="183.58281"
     inkscape:cy="173.15328"
     inkscape:document-units="mm"
     inkscape:current-layer="layer2"
     showgrid="true"
     units="cm"
     inkscape:snap-bbox="false"
     inkscape:snap-bbox-edge-midpoints="false"
     inkscape:window-width="1852"
     inkscape:window-height="1057"
     inkscape:window-x="60"
     inkscape:window-y="-8"
     inkscape:window-maximized="1"
     inkscape:snap-smooth-nodes="true"
     showguides="true"
     inkscape:snap-nodes="false"
     inkscape:object-nodes="true"
     inkscape:snap-others="false">
    <inkscape:grid
       type="xygrid"
       id="grid815"
       units="cm"
       spacingx="9.9999996"
       spacingy="9.9999996" />
    <inkscape:grid
       type="xygrid"
       id="grid1019"
       color="#3febff"
       opacity="0.1254902"
       empcolor="#3fe7ff"
       empopacity="0.25098039"
       empspacing="10"
       dotted="false"
       spacingx="0.99999996"
       spacingy="0.99999996"
       units="cm" />
  </sodipodi:namedview>
  <metadata
     id="metadata5">
    <rdf:RDF>
      <cc:Work
         rdf:about="">
        <dc:format>image/svg+xml</dc:format>
        <dc:type
           rdf:resource="http://purl.org/dc/dcmitype/StillImage" />
        <dc:title></dc:title>
      </cc:Work>
    </rdf:RDF>
  </metadata>
  <g
     inkscape:label="canva"
     inkscape:groupmode="layer"
     id="layer1"
     transform="translate(0,-217.00002)"
     style="display:inline;opacity:0.2"
     sodipodi:insensitive="true">
    <path
       style="fill:none;stroke:#dddddd;stroke-width:0.25;stroke-linecap:butt;stroke-linejoin:miter;stroke-miterlimit:4;stroke-dasharray:none;stroke-opacity:1"
       d="M 79.999991,247.00002 H 0"
       id="path872-1-9-3"
       inkscape:connector-curvature="0" />
    <path
       style="fill:none;stroke:#dddddd;stroke-width:0.25;stroke-linecap:butt;stroke-linejoin:miter;stroke-miterlimit:4;stroke-dasharray:none;stroke-opacity:1"
       d="M 79.999997,267.00002 H 5.4000007e-6"
       id="path872-1-9-2"
       inkscape:connector-curvature="0" />
    <path
       style="fill:none;stroke:#dddddd;stroke-width:0.25;stroke-linecap:butt;stroke-linejoin:miter;stroke-miterlimit:4;stroke-dasharray:none;stroke-opacity:1"
       d="M 79.999991,287.00002 H 0"
       id="path872-1-9-0"
       inkscape:connector-curvature="0" />
    <path
       style="fill:none;stroke:#dddddd;stroke-width:0.25;stroke-linecap:butt;stroke-linejoin:miter;stroke-miterlimit:4;stroke-dasharray:none;stroke-opacity:1"
       d="M 79.99999,227.00003 H 0"
       id="path872-1-9"
       inkscape:connector-curvature="0" />
    <path
       style="fill:none;stroke:#dddddd;stroke-width:0.25;stroke-linecap:butt;stroke-linejoin:miter;stroke-miterlimit:4;stroke-dasharray:none;stroke-opacity:1"
       d="m 29.999999,217.00003 v 79.99999"
       id="path872-1"
       inkscape:connector-curvature="0" />
    <path
       style="fill:none;stroke:#dddddd;stroke-width:0.25;stroke-linecap:butt;stroke-linejoin:miter;stroke-miterlimit:4;stroke-dasharray:none;stroke-opacity:1"
       d="m 49.999998,217.00003 v 79.99999"
       id="path872-3"
       inkscape:connector-curvature="0" />
    <path
       style="fill:none;stroke:#dddddd;stroke-width:0.25;stroke-linecap:butt;stroke-linejoin:miter;stroke-miterlimit:4;stroke-dasharray:none;stroke-opacity:1"
       d="m 69.999997,217.00003 v 79.99999"
       id="path872-9"
       inkscape:connector-curvature="0" />
    <path
       style="fill:none;stroke:#dddddd;stroke-width:0.25;stroke-linecap:butt;stroke-linejoin:miter;stroke-miterlimit:4;stroke-dasharray:none;stroke-opacity:1"
       d="m 9.9999995,217.00003 v 79.99999"
       id="path872"
       inkscape:connector-curvature="0" />
    <path
       style="fill:none;stroke:#aaaaaa;stroke-width:0.5;stroke-linecap:butt;stroke-linejoin:miter;stroke-miterlimit:4;stroke-dasharray:none;stroke-opacity:1"
       d="M 0,277.00002 H 79.999996"
       id="path855-3"
       inkscape:connector-curvature="0" />
    <path
       style="fill:none;stroke:#aaaaaa;stroke-width:0.5;stroke-linecap:butt;stroke-linejoin:miter;stroke-miterlimit:4;stroke-dasharray:none;stroke-opacity:1"
       d="M 0,237.00002 H 79.999995"
       id="path855"
       inkscape:connector-curvature="0" />
    <path
       style="fill:none;stroke:#aaaaaa;stroke-width:0.5;stroke-linecap:butt;stroke-linejoin:miter;stroke-miterlimit:4;stroke-dasharray:none;stroke-opacity:1"
       d="m 59.999998,217.00003 v 79.99999"
       id="path823-2"
       inkscape:connector-curvature="0" />
    <path
       style="fill:none;stroke:#aaaaaa;stroke-width:0.5;stroke-linecap:butt;stroke-linejoin:miter;stroke-miterlimit:4;stroke-dasharray:none;stroke-opacity:1"
       d="m 19.999999,217.00003 v 79.99999"
       id="path823"
       inkscape:connector-curvature="0" />
    <rect
       style="opacity:1;vector-effect:none;fill:none;fill-opacity:1;fill-rule:nonzero;stroke:#444444;stroke-width:1;stroke-linecap:square;stroke-linejoin:miter;stroke-miterlimit:3.9000001;stroke-dasharray:none;stroke-dashoffset:0;stroke-opacity:1;paint-order:normal"
       id="rect817"
       width="79.999992"
       height="79.999992"
       x="0"
       y="217.00003" />
    <path
       style="fill:none;stroke:#444444;stroke-width:0.5;stroke-linecap:butt;stroke-linejoin:miter;stroke-miterlimit:4;stroke-dasharray:none;stroke-opacity:1"
       d="m 39.999999,217.00003 v 79.99999"
       id="path819"
       inkscape:connector-curvature="0" />
    <path
       style="fill:none;stroke:#444444;stroke-width:0.5;stroke-linecap:butt;stroke-linejoin:miter;stroke-miterlimit:4;stroke-dasharray:none;stroke-opacity:1"
       d="M 0,257.00002 H 79.999995"
       id="path821"
       inkscape:connector-curvature="0" />
    <ellipse
       style="opacity:1;vector-effect:none;fill:none;fill-opacity:1;fill-rule:nonzero;stroke:#444444;stroke-width:0.5;stroke-linecap:square;stroke-linejoin:miter;stroke-miterlimit:4;stroke-dasharray:none;stroke-dashoffset:0;stroke-opacity:0.94117647;paint-order:normal"
       id="path943"
       cx="40"
       cy="257.00003"
       rx="39.843849"
       ry="39.843853" />
    <path
       style="fill:none;stroke:#444444;stroke-width:0.5;stroke-linecap:butt;stroke-linejoin:miter;stroke-miterlimit:4;stroke-dasharray:none;stroke-opacity:1"
       d="m 0,217.00003 c 0,0 0,39.99999 39.999999,39.99999 39.999996,0 39.999996,-39.99999 39.999996,-39.99999"
       id="path945"
       inkscape:connector-curvature="0" />
    <path
       style="fill:none;stroke:#444444;stroke-width:0.5;stroke-linecap:butt;stroke-linejoin:miter;stroke-miterlimit:4;stroke-dasharray:none;stroke-opacity:1"
       d="m 79.999996,297.25001 c 0,0 0,-39.99999 -39.999999,-39.99999 C 2.9999969e-7,257.25002 2.9999969e-7,297.25001 2.9999969e-7,297.25001"
       id="path945-1"
       inkscape:connector-curvature="0" />
    <path
       style="fill:none;stroke:#444444;stroke-width:0.5;stroke-linecap:butt;stroke-linejoin:miter;stroke-miterlimit:4;stroke-dasharray:none;stroke-opacity:1"
       d="m 80.12499,217.12502 c 0,0 -39.99999,0 -39.99999,40 0,40 39.99999,40 39.99999,40"
       id="path945-1-9"
       inkscape:connector-curvature="0" />
    <path
       style="fill:none;stroke:#444444;stroke-width:0.5;stroke-linecap:butt;stroke-linejoin:miter;stroke-miterlimit:4;stroke-dasharray:none;stroke-opacity:1"
       d="m -0.1249963,297.25002 c 0,0 39.9999913,0 39.9999913,-40 0,-40 -39.9999913,-40 -39.9999913,-40"
       id="path945-1-9-5"
       inkscape:connector-curvature="0" />
  </g>
  <g
     inkscape:groupmode="layer"
     id="layer2"
     inkscape:label="rune">
    <path
       style="fill:#40224a;fill-opacity:1;stroke-width:0.06340466"
       d="m 38.775462,71.885542 c -0.122054,-0.01351 -0.53577,-0.05614 -0.919368,-0.0946 -1.796151,-0.180355 -3.671001,-0.643355 -4.890082,-1.207604 -1.589622,-0.735767 -3.513037,-2.766502 -5.167914,-5.456259 -1.218955,-1.981235 -1.546491,-2.714026 -2.006883,-4.489968 l -0.287647,-1.109583 -0.02817,-1.547055 c -0.03674,-2.017471 0.112529,-3.185457 0.596406,-4.666601 0.758533,-2.321862 2.691071,-4.297695 5.295717,-5.414358 1.328667,-0.569625 2.39379,-0.848813 4.396226,-1.152327 1.031375,-0.156329 3.16954,-0.181127 5.135778,-0.05956 0.76191,0.0471 1.876037,0.05364 3.351675,0.01965 l 2.21039,-0.05091 -0.466762,-0.315068 c -0.575833,-0.388691 -2.707065,-2.496569 -3.367601,-3.330698 -0.262344,-0.33129 -0.698418,-0.930464 -0.969054,-1.331499 -0.270635,-0.401036 -0.683848,-0.985942 -0.918249,-1.299795 -1.562149,-2.091648 -2.542129,-4.078137 -2.908945,-5.896633 -0.154142,-0.764158 -0.286722,-2.246029 -0.232492,-2.598595 0.07318,-0.475779 0.428092,-1.433433 0.628558,-1.696035 0.109834,-0.143878 0.342358,-0.334931 0.516722,-0.424562 0.274942,-0.141336 0.396974,-0.162965 0.919366,-0.162965 0.906126,0 1.187346,0.157602 2.284066,1.280055 0.992148,1.015423 1.388734,1.604487 2.110653,3.135018 1.405476,2.979733 3.277534,5.947551 4.964199,7.869864 0.622327,0.709276 2.195828,2.225413 2.838566,2.735084 0.239756,0.190119 0.781865,0.531668 1.204687,0.758998 1.681286,0.903943 2.146812,1.11189 3.000344,1.340235 0.460171,0.123107 1.326235,0.394659 1.924587,0.603447 1.46896,0.512574 2.027953,0.617399 3.711539,0.696006 1.937788,0.09047 2.617441,0.163882 3.892952,0.420447 1.076005,0.216434 1.139955,0.222031 2.059181,0.180263 0.521778,-0.02371 1.014355,-0.06807 1.094615,-0.09859 0.113519,-0.04316 0.201939,-0.01704 0.39818,0.117649 0.519844,0.35678 0.379074,0.632276 -0.505349,0.989055 -0.449862,0.181474 -0.546014,0.245795 -0.594568,0.397729 -0.17604,0.55091 -0.912225,0.906196 -2.138541,1.032074 -0.328859,0.03376 -3.465405,0.0942 -6.970096,0.134327 -6.66848,0.07634 -6.756811,0.07446 -8.971759,-0.190956 -0.55796,-0.06686 -1.228465,-0.138893 -1.490008,-0.160073 -0.261545,-0.02118 -0.789389,-0.07778 -1.172987,-0.125763 -0.383599,-0.048 -0.925708,-0.105029 -1.204688,-0.126751 -0.27898,-0.02173 -0.833012,-0.09617 -1.231182,-0.165437 -0.515785,-0.08973 -1.245728,-0.143054 -2.538633,-0.185454 -0.998079,-0.03274 -2.141707,-0.08907 -2.541394,-0.125198 -1.976209,-0.178635 -2.305332,-0.149631 -3.154452,0.277978 -1.147723,0.577984 -2.545577,2.054866 -3.186987,3.367162 -0.321705,0.658198 -0.526972,1.392941 -0.693272,2.481554 -0.416308,2.725159 -0.214794,4.893225 0.616296,6.630635 0.635115,1.327725 1.993331,3.186373 3.070351,4.201605 1.291881,1.217784 1.812132,1.462354 3.445616,1.6198 1.118072,0.107768 2.361975,-0.05249 3.030158,-0.390457 0.482652,-0.244103 1.210629,-0.7958 1.645864,-1.247309 0.495019,-0.513523 0.898824,-1.274271 1.000237,-1.884399 0.103553,-0.623007 0.01239,-2.232689 -0.172297,-3.042015 l -0.159153,-0.697443 -0.397791,-0.380424 c -0.532826,-0.509572 -1.455703,-1.063389 -1.71338,-1.028197 -0.10462,0.01429 -0.532599,0.127199 -0.951069,0.250912 -1.666435,0.492671 -2.333305,0.643339 -2.967862,0.670551 -1.068111,0.04581 -1.90751,-0.214229 -2.118279,-0.656219 -0.12598,-0.264181 -0.08099,-0.385969 0.393064,-1.064112 0.341074,-0.487912 0.826379,-0.904527 1.538653,-1.320867 0.960376,-0.56136 1.883996,-0.833604 3.218201,-0.94859 1.898364,-0.163606 3.978284,0.245502 5.832855,1.147282 1.060222,0.515534 2.209036,1.368661 2.700046,2.0051 0.417294,0.54089 0.717693,1.593784 0.974873,3.41692 0.254893,1.80691 0.0219,2.839121 -0.930273,4.121297 -0.471537,0.63497 -1.511151,1.645699 -2.17212,2.111757 -1.414034,0.997081 -3.348961,1.683259 -5.676601,2.013088 -0.687375,0.09741 -3.622082,0.17972 -4.184707,0.117378 z M 68.176448,40.786586 c -1.974744,-0.230796 -3.145854,-0.625127 -5.91208,-1.990695 -1.491042,-0.736065 -2.075935,-1.064866 -3.075125,-1.728708 -0.67863,-0.450867 -1.733184,-1.119971 -2.343455,-1.486898 -0.610269,-0.366927 -1.252241,-0.753302 -1.426603,-0.85861 -0.174365,-0.105309 -0.659182,-0.373355 -1.077372,-0.595657 -1.918726,-1.019952 -3.866747,-2.584836 -4.991937,-4.010121 -0.522726,-0.66214 -1.974204,-2.280076 -2.965124,-3.30517 -1.501762,-1.553553 -2.851606,-3.478832 -4.089774,-5.833228 -0.465885,-0.885892 -0.54393,-1.019268 -0.999752,-1.708548 -0.206323,-0.311994 -0.489427,-0.797038 -0.629121,-1.077877 -0.405411,-0.815033 -0.832877,-1.560775 -0.884007,-1.542208 -0.02592,0.0094 -0.408429,0.487896 -0.850009,1.063294 -0.44158,0.575397 -0.995107,1.260168 -1.230057,1.521711 -0.23495,0.261545 -0.736118,0.860717 -1.113706,1.331497 -0.808423,1.007947 -1.875426,2.086227 -3.107144,3.139982 -0.98406,0.84188 -1.732263,1.544392 -3.614074,3.393377 -0.697452,0.685284 -1.781671,1.69872 -2.409377,2.25208 -0.627707,0.553361 -1.811788,1.664339 -2.631292,2.468841 -2.134859,2.095774 -2.424663,2.366597 -3.196767,2.987383 -0.380754,0.306134 -0.9086,0.758558 -1.172987,1.005385 -0.744757,0.695292 -1.423266,1.182652 -2.969179,2.132705 -1.745894,1.072953 -2.318846,1.360411 -3.519709,1.765881 -1.321084,0.446062 -1.803293,0.533094 -2.737489,0.494079 -0.873596,-0.03648 -1.3660611,-0.182933 -1.6838763,-0.500748 -0.3500011,-0.35 -0.2548487,-0.548328 0.6306683,-1.314502 1.478074,-1.278873 3.642346,-2.756274 5.582473,-3.81077 0.780713,-0.424333 2.223013,-1.3832 2.948316,-1.960095 0.244108,-0.194158 0.829016,-0.708002 1.299796,-1.141872 0.470778,-0.433871 1.41231,-1.276041 2.092291,-1.871488 1.525007,-1.335418 2.952483,-2.747136 3.499258,-3.460627 0.227155,-0.296418 0.963247,-1.380638 1.635759,-2.409377 0.672513,-1.028742 1.571782,-2.398391 1.998375,-3.043668 0.426595,-0.645278 0.953802,-1.529771 1.17157,-1.965543 0.927654,-1.856309 1.900433,-3.313862 3.325309,-4.982441 0.295248,-0.345744 0.873289,-1.070875 1.284533,-1.6114 1.083477,-1.42408 1.667333,-1.95834 2.634953,-2.4111173 0.914202,-0.4277827 2.223382,-0.5983348 3.213451,-0.4186268 0.655388,0.1189592 1.289743,0.4173828 1.444645,0.6796108 0.06449,0.1091733 0.28372,0.2839973 0.516779,0.4121033 0.573998,0.315508 1.287617,0.879614 1.890588,1.494483 0.928271,0.946585 2.618343,2.924811 2.988031,3.497485 0.19856,0.30758 0.60062,0.921018 0.893469,1.363199 0.292847,0.442178 0.675246,1.103548 0.849772,1.46971 0.174526,0.366162 0.538063,0.979601 0.80786,1.363199 0.269797,0.383599 0.859752,1.268093 1.311011,1.965544 0.451258,0.697452 1.007792,1.553415 1.236741,1.90214 0.228949,0.348726 0.801775,1.304551 1.272944,2.124056 1.625328,2.826926 1.990995,3.342465 3.197141,4.507489 0.842103,0.813391 2.72385,2.407043 3.437069,2.910855 0.320891,0.226672 0.873963,0.620282 1.229054,0.874689 0.35509,0.254408 0.97374,0.679699 1.374774,0.94509 0.401036,0.265392 0.985943,0.673272 1.299796,0.906398 0.313852,0.233127 0.970094,0.661534 1.458309,0.952015 0.488215,0.290482 1.044593,0.633181 1.236386,0.761556 0.1918,0.128373 0.53419,0.346547 0.760857,0.484833 0.226675,0.138282 0.818177,0.500791 1.314465,0.805571 0.585571,0.359618 1.091991,0.618258 1.442611,0.736776 0.959567,0.324353 1.275849,0.582372 1.123574,0.91659 -0.236318,0.518663 -1.588064,0.665707 -3.772612,0.410388 z"
       id="path13533"
       inkscape:connector-curvature="0" />
  </g>
</svg>
