<?xml version="1.0" encoding="UTF-8" standalone="no"?>
<!-- Created with Inkscape (http://www.inkscape.org/) -->

<svg
   xmlns:dc="http://purl.org/dc/elements/1.1/"
   xmlns:cc="http://creativecommons.org/ns#"
   xmlns:rdf="http://www.w3.org/1999/02/22-rdf-syntax-ns#"
   xmlns:svg="http://www.w3.org/2000/svg"
   xmlns="http://www.w3.org/2000/svg"
   xmlns:sodipodi="http://sodipodi.sourceforge.net/DTD/sodipodi-0.dtd"
   xmlns:inkscape="http://www.inkscape.org/namespaces/inkscape"
   width="8cm"
   height="8cm"
   viewBox="0 0 80 79.999998"
   version="1.1"
   id="svg8"
   inkscape:version="0.92.4 (5da689c313, 2019-01-14)"
   sodipodi:docname="runic-yegeter.svg">
  <defs
     id="defs2" />
  <sodipodi:namedview
     id="base"
     pagecolor="#ffffff"
     bordercolor="#666666"
     borderopacity="1.0"
     inkscape:pageopacity="0.0"
     inkscape:pageshadow="2"
     inkscape:zoom="1.979899"
     inkscape:cx="133.4604"
     inkscape:cy="151.11609"
     inkscape:document-units="mm"
     inkscape:current-layer="layer2"
     showgrid="true"
     units="cm"
     inkscape:snap-bbox="true"
     inkscape:snap-bbox-edge-midpoints="true"
     inkscape:window-width="1852"
     inkscape:window-height="1057"
     inkscape:window-x="60"
     inkscape:window-y="-8"
     inkscape:window-maximized="1"
     inkscape:snap-smooth-nodes="true"
     showguides="true"
     inkscape:snap-nodes="true"
     inkscape:object-nodes="true">
    <inkscape:grid
       type="xygrid"
       id="grid815"
       units="cm"
       spacingx="9.9999996"
       spacingy="9.9999996" />
    <inkscape:grid
       type="xygrid"
       id="grid1019"
       color="#3febff"
       opacity="0.1254902"
       empcolor="#3fe7ff"
       empopacity="0.25098039"
       empspacing="10"
       dotted="false"
       spacingx="0.99999996"
       spacingy="0.99999996"
       units="cm" />
  </sodipodi:namedview>
  <metadata
     id="metadata5">
    <rdf:RDF>
      <cc:Work
         rdf:about="">
        <dc:format>image/svg+xml</dc:format>
        <dc:type
           rdf:resource="http://purl.org/dc/dcmitype/StillImage" />
        <dc:title />
      </cc:Work>
    </rdf:RDF>
  </metadata>
  <g
     inkscape:label="canva"
     inkscape:groupmode="layer"
     id="layer1"
     transform="translate(0,-217.00002)"
     style="display:inline;opacity:0.2"
     sodipodi:insensitive="true">
    <path
       style="fill:none;stroke:#dddddd;stroke-width:0.25;stroke-linecap:butt;stroke-linejoin:miter;stroke-miterlimit:4;stroke-dasharray:none;stroke-opacity:1"
       d="M 79.999991,247.00002 H 0"
       id="path872-1-9-3"
       inkscape:connector-curvature="0" />
    <path
       style="fill:none;stroke:#dddddd;stroke-width:0.25;stroke-linecap:butt;stroke-linejoin:miter;stroke-miterlimit:4;stroke-dasharray:none;stroke-opacity:1"
       d="M 79.999997,267.00002 H 5.4000007e-6"
       id="path872-1-9-2"
       inkscape:connector-curvature="0" />
    <path
       style="fill:none;stroke:#dddddd;stroke-width:0.25;stroke-linecap:butt;stroke-linejoin:miter;stroke-miterlimit:4;stroke-dasharray:none;stroke-opacity:1"
       d="M 79.999991,287.00002 H 0"
       id="path872-1-9-0"
       inkscape:connector-curvature="0" />
    <path
       style="fill:none;stroke:#dddddd;stroke-width:0.25;stroke-linecap:butt;stroke-linejoin:miter;stroke-miterlimit:4;stroke-dasharray:none;stroke-opacity:1"
       d="M 79.99999,227.00003 H 0"
       id="path872-1-9"
       inkscape:connector-curvature="0" />
    <path
       style="fill:none;stroke:#dddddd;stroke-width:0.25;stroke-linecap:butt;stroke-linejoin:miter;stroke-miterlimit:4;stroke-dasharray:none;stroke-opacity:1"
       d="m 29.999999,217.00003 v 79.99999"
       id="path872-1"
       inkscape:connector-curvature="0" />
    <path
       style="fill:none;stroke:#dddddd;stroke-width:0.25;stroke-linecap:butt;stroke-linejoin:miter;stroke-miterlimit:4;stroke-dasharray:none;stroke-opacity:1"
       d="m 49.999998,217.00003 v 79.99999"
       id="path872-3"
       inkscape:connector-curvature="0" />
    <path
       style="fill:none;stroke:#dddddd;stroke-width:0.25;stroke-linecap:butt;stroke-linejoin:miter;stroke-miterlimit:4;stroke-dasharray:none;stroke-opacity:1"
       d="m 69.999997,217.00003 v 79.99999"
       id="path872-9"
       inkscape:connector-curvature="0" />
    <path
       style="fill:none;stroke:#dddddd;stroke-width:0.25;stroke-linecap:butt;stroke-linejoin:miter;stroke-miterlimit:4;stroke-dasharray:none;stroke-opacity:1"
       d="m 9.9999995,217.00003 v 79.99999"
       id="path872"
       inkscape:connector-curvature="0" />
    <path
       style="fill:none;stroke:#aaaaaa;stroke-width:0.5;stroke-linecap:butt;stroke-linejoin:miter;stroke-miterlimit:4;stroke-dasharray:none;stroke-opacity:1"
       d="M 0,277.00002 H 79.999996"
       id="path855-3"
       inkscape:connector-curvature="0" />
    <path
       style="fill:none;stroke:#aaaaaa;stroke-width:0.5;stroke-linecap:butt;stroke-linejoin:miter;stroke-miterlimit:4;stroke-dasharray:none;stroke-opacity:1"
       d="M 0,237.00002 H 79.999995"
       id="path855"
       inkscape:connector-curvature="0" />
    <path
       style="fill:none;stroke:#aaaaaa;stroke-width:0.5;stroke-linecap:butt;stroke-linejoin:miter;stroke-miterlimit:4;stroke-dasharray:none;stroke-opacity:1"
       d="m 59.999998,217.00003 v 79.99999"
       id="path823-2"
       inkscape:connector-curvature="0" />
    <path
       style="fill:none;stroke:#aaaaaa;stroke-width:0.5;stroke-linecap:butt;stroke-linejoin:miter;stroke-miterlimit:4;stroke-dasharray:none;stroke-opacity:1"
       d="m 19.999999,217.00003 v 79.99999"
       id="path823"
       inkscape:connector-curvature="0" />
    <rect
       style="opacity:1;vector-effect:none;fill:none;fill-opacity:1;fill-rule:nonzero;stroke:#444444;stroke-width:1;stroke-linecap:square;stroke-linejoin:miter;stroke-miterlimit:3.9000001;stroke-dasharray:none;stroke-dashoffset:0;stroke-opacity:1;paint-order:normal"
       id="rect817"
       width="79.999992"
       height="79.999992"
       x="0"
       y="217.00003" />
    <path
       style="fill:none;stroke:#444444;stroke-width:0.5;stroke-linecap:butt;stroke-linejoin:miter;stroke-miterlimit:4;stroke-dasharray:none;stroke-opacity:1"
       d="m 39.999999,217.00003 v 79.99999"
       id="path819"
       inkscape:connector-curvature="0" />
    <path
       style="fill:none;stroke:#444444;stroke-width:0.5;stroke-linecap:butt;stroke-linejoin:miter;stroke-miterlimit:4;stroke-dasharray:none;stroke-opacity:1"
       d="M 0,257.00002 H 79.999995"
       id="path821"
       inkscape:connector-curvature="0" />
    <ellipse
       style="opacity:1;vector-effect:none;fill:none;fill-opacity:1;fill-rule:nonzero;stroke:#444444;stroke-width:0.5;stroke-linecap:square;stroke-linejoin:miter;stroke-miterlimit:4;stroke-dasharray:none;stroke-dashoffset:0;stroke-opacity:0.94117647;paint-order:normal"
       id="path943"
       cx="40"
       cy="257.00003"
       rx="39.843849"
       ry="39.843853" />
    <path
       style="fill:none;stroke:#444444;stroke-width:0.5;stroke-linecap:butt;stroke-linejoin:miter;stroke-miterlimit:4;stroke-dasharray:none;stroke-opacity:1"
       d="m 0,217.00003 c 0,0 0,39.99999 39.999999,39.99999 39.999996,0 39.999996,-39.99999 39.999996,-39.99999"
       id="path945"
       inkscape:connector-curvature="0" />
    <path
       style="fill:none;stroke:#444444;stroke-width:0.5;stroke-linecap:butt;stroke-linejoin:miter;stroke-miterlimit:4;stroke-dasharray:none;stroke-opacity:1"
       d="m 79.999996,297.25001 c 0,0 0,-39.99999 -39.999999,-39.99999 C 2.9999969e-7,257.25002 2.9999969e-7,297.25001 2.9999969e-7,297.25001"
       id="path945-1"
       inkscape:connector-curvature="0" />
    <path
       style="fill:none;stroke:#444444;stroke-width:0.5;stroke-linecap:butt;stroke-linejoin:miter;stroke-miterlimit:4;stroke-dasharray:none;stroke-opacity:1"
       d="m 80.12499,217.12502 c 0,0 -39.99999,0 -39.99999,40 0,40 39.99999,40 39.99999,40"
       id="path945-1-9"
       inkscape:connector-curvature="0" />
    <path
       style="fill:none;stroke:#444444;stroke-width:0.5;stroke-linecap:butt;stroke-linejoin:miter;stroke-miterlimit:4;stroke-dasharray:none;stroke-opacity:1"
       d="m -0.1249963,297.25002 c 0,0 39.9999913,0 39.9999913,-40 0,-40 -39.9999913,-40 -39.9999913,-40"
       id="path945-1-9-5"
       inkscape:connector-curvature="0" />
  </g>
  <g
     inkscape:groupmode="layer"
     id="layer2"
     inkscape:label="rune">
    <path
       style="fill:#40224a;fill-opacity:1;stroke:#40224a;stroke-width:0.26499999;stroke-linecap:round;stroke-linejoin:round;stroke-miterlimit:4;stroke-dasharray:none;stroke-opacity:1"
       d="m 39.999998,30.000004 c -2.999999,-1 -11.999999,-1e-6 -11.999999,10 0,9.999999 9,11 12,9.999999 0,0 -8,0 -8,-9.999999 0,-10.000001 7.999999,-10 7.999999,-10 z"
       id="path1021"
       inkscape:connector-curvature="0"
       sodipodi:nodetypes="cccsc" />
    <path
       style="fill:#40224a;fill-opacity:1;stroke:#40224a;stroke-width:0.26499999;stroke-linecap:round;stroke-linejoin:round;stroke-miterlimit:4;stroke-dasharray:none;stroke-opacity:1"
       d="m 39.999998,30.000004 c 2.999998,-1 11.999999,-1e-6 11.999999,10 0,9.999999 -9.000001,11 -12,9.999999 0,0 7.999999,0 7.999999,-9.999999 0,-10.000001 -7.999998,-10 -7.999998,-10 z"
       id="path1021-6"
       inkscape:connector-curvature="0"
       sodipodi:nodetypes="cccsc" />
    <path
       style="fill:#40224a;fill-opacity:1;stroke:#40224a;stroke-width:0.26499999;stroke-linecap:round;stroke-linejoin:round;stroke-miterlimit:4;stroke-dasharray:none;stroke-opacity:1"
       d="m 49.999999,20.000006 c 2.999998,-1 11.999999,-10e-7 11.999999,9.999999 0,9.999999 -9.000001,11 -12,9.999999 0,0 7.999999,0 7.999999,-9.999999 0,-10 -7.999998,-9.999999 -7.999998,-9.999999 z"
       id="path1021-6-0"
       inkscape:connector-curvature="0"
       sodipodi:nodetypes="cccsc" />
    <path
       style="fill:#40224a;fill-opacity:1;stroke:#40224a;stroke-width:0.26499999;stroke-linecap:round;stroke-linejoin:round;stroke-miterlimit:4;stroke-dasharray:none;stroke-opacity:1"
       d="m 59.999999,10.000005 c 2.999998,-0.9999998 11.999999,-10e-7 11.999999,10 0,9.999999 -9.000001,11 -12,9.999999 0,0 7.999999,0 7.999999,-9.999999 0,-10.000001 -7.999998,-10 -7.999998,-10 z"
       id="path1021-6-6"
       inkscape:connector-curvature="0"
       sodipodi:nodetypes="cccsc" />
    <path
       style="fill:#40224a;fill-opacity:1;stroke:#40224a;stroke-width:0.26499999;stroke-linecap:round;stroke-linejoin:round;stroke-miterlimit:4;stroke-dasharray:none;stroke-opacity:1"
       d="m 49.999998,40.000004 c 2.999998,-1 11.999999,-10e-7 11.999999,10 0,9.999999 -9.000001,11 -12,9.999999 0,0 7.999999,0 7.999999,-9.999999 0,-10.000001 -7.999998,-10 -7.999998,-10 z"
       id="path1021-6-02"
       inkscape:connector-curvature="0"
       sodipodi:nodetypes="cccsc" />
    <path
       style="fill:#40224a;fill-opacity:1;stroke:#40224a;stroke-width:0.26499999;stroke-linecap:round;stroke-linejoin:round;stroke-miterlimit:4;stroke-dasharray:none;stroke-opacity:1"
       d="M 29.999999,40.000004 C 27,39.000004 18,40.000003 18,50.000004 c 0,9.999999 9,11 12,9.999999 0,0 -8,0 -8,-9.999999 0,-10.000001 7.999999,-10 7.999999,-10 z"
       id="path1021-9"
       inkscape:connector-curvature="0"
       sodipodi:nodetypes="cccsc" />
    <path
       style="fill:#40224a;fill-opacity:1;stroke:#40224a;stroke-width:0.26499999;stroke-linecap:round;stroke-linejoin:round;stroke-miterlimit:4;stroke-dasharray:none;stroke-opacity:1"
       d="M 29.999999,20.000005 C 27,19.000005 18,20.000004 18,30.000005 c 0,9.999999 9,11 12,9.999999 0,0 -8,0 -8,-9.999999 0,-10.000001 7.999999,-10 7.999999,-10 z"
       id="path1021-8"
       inkscape:connector-curvature="0"
       sodipodi:nodetypes="cccsc" />
    <path
       style="fill:#40224a;fill-opacity:1;stroke:#40224a;stroke-width:0.26499999;stroke-linecap:round;stroke-linejoin:round;stroke-miterlimit:4;stroke-dasharray:none;stroke-opacity:1"
       d="m 19.999999,10.000005 c -2.999999,-1 -11.9999988,-10e-7 -11.9999988,10 0,9.999999 8.9999998,11 11.9999998,9.999999 0,0 -8,0 -8,-9.999999 0,-10.000001 7.999999,-10 7.999999,-10 z"
       id="path1021-61"
       inkscape:connector-curvature="0"
       sodipodi:nodetypes="cccsc" />
    <path
       style="fill:#40224a;fill-opacity:1;stroke:#40224a;stroke-width:0.21225828;stroke-linecap:round;stroke-linejoin:round;stroke-miterlimit:4;stroke-dasharray:none;stroke-opacity:1"
       d="m 39.999998,59.973715 c -7.114022,0 -2.845609,9.469164 0,9.920077 2.845609,-0.450913 7.114023,-9.920077 0,-9.920077 z"
       id="path1038-2"
       inkscape:connector-curvature="0"
       sodipodi:nodetypes="scs" />
    <path
       style="fill:#40224a;fill-opacity:1;stroke:#40224a;stroke-width:0.21225828;stroke-linecap:round;stroke-linejoin:round;stroke-miterlimit:4;stroke-dasharray:none;stroke-opacity:1"
       d="m 39.999998,10.000005 c -7.114022,0 -2.845609,9.469164 0,9.920077 2.845609,-0.450913 7.114024,-9.920077 0,-9.920077 z"
       id="path1038-2-0"
       inkscape:connector-curvature="0"
       sodipodi:nodetypes="scs" />
    <path
       style="fill:#40224a;fill-opacity:1;stroke:#40224a;stroke-width:0.26458332px;stroke-linecap:round;stroke-linejoin:round;stroke-opacity:1"
       d="m 31,59.000001 c 0.999998,1.000001 0.999998,3 0,4 -1.000001,1.000001 -5,2 -1.000001,6.999999 C 22,66.000001 26,61.000002 27,60.000001 c 0.999998,-1 3.057193,-1.94281 4,-1 z"
       id="path12144"
       inkscape:connector-curvature="0"
       sodipodi:nodetypes="sccss" />
    <path
       style="fill:#40224a;fill-opacity:1;stroke:#40224a;stroke-width:0.26458332px;stroke-linecap:round;stroke-linejoin:round;stroke-opacity:1"
       d="m 21,59.000001 c 0.999998,1.000001 0.999998,3 0,4 -1.000001,1.000001 -5,2 -1.000001,6.999999 C 12,66.000001 16,61.000002 17,60.000001 c 0.999998,-1 3.057192,-1.94281 4,-1 z"
       id="path12144-5"
       inkscape:connector-curvature="0"
       sodipodi:nodetypes="sccss" />
    <path
       style="fill:#40224a;fill-opacity:1;stroke:#40224a;stroke-width:0.26458332px;stroke-linecap:round;stroke-linejoin:round;stroke-opacity:1"
       d="m 48.999997,59.000002 c -0.999998,1.000001 -0.999998,3 0,4 1.000001,1.000001 5,2 1.000001,6.999998 7.999999,-3.999998 3.999999,-8.999997 2.999999,-9.999998 -0.999998,-1 -3.057193,-1.94281 -4,-1 z"
       id="path12144-7"
       inkscape:connector-curvature="0"
       sodipodi:nodetypes="sccss" />
    <path
       style="fill:#40224a;fill-opacity:1;stroke:#40224a;stroke-width:0.26458332px;stroke-linecap:round;stroke-linejoin:round;stroke-opacity:1"
       d="m 58.999997,59.000001 c -0.999998,1.000001 -0.999998,3 0,4 1.000001,1.000001 5,2 1.000001,6.999999 7.999999,-3.999999 3.999999,-8.999998 2.999999,-9.999999 -0.999998,-1 -3.057193,-1.94281 -4,-1 z"
       id="path12144-4"
       inkscape:connector-curvature="0"
       sodipodi:nodetypes="sccss" />
  </g>
</svg>
