<?xml version="1.0" encoding="UTF-8" standalone="no"?>
<!-- Created with Inkscape (http://www.inkscape.org/) -->

<svg
   xmlns:dc="http://purl.org/dc/elements/1.1/"
   xmlns:cc="http://creativecommons.org/ns#"
   xmlns:rdf="http://www.w3.org/1999/02/22-rdf-syntax-ns#"
   xmlns:svg="http://www.w3.org/2000/svg"
   xmlns="http://www.w3.org/2000/svg"
   xmlns:sodipodi="http://sodipodi.sourceforge.net/DTD/sodipodi-0.dtd"
   xmlns:inkscape="http://www.inkscape.org/namespaces/inkscape"
   width="8cm"
   height="8cm"
   viewBox="0 0 80 79.999998"
   version="1.1"
   id="svg8"
   inkscape:version="0.92.4 (5da689c313, 2019-01-14)"
   sodipodi:docname="runic-semet.svg">
  <defs
     id="defs2" />
  <sodipodi:namedview
     id="base"
     pagecolor="#ffffff"
     bordercolor="#666666"
     borderopacity="1.0"
     inkscape:pageopacity="0.0"
     inkscape:pageshadow="2"
     inkscape:zoom="1.4"
     inkscape:cx="-36.642252"
     inkscape:cy="244.86914"
     inkscape:document-units="mm"
     inkscape:current-layer="layer2"
     showgrid="true"
     units="cm"
     inkscape:snap-bbox="true"
     inkscape:snap-bbox-edge-midpoints="true"
     inkscape:window-width="1852"
     inkscape:window-height="1057"
     inkscape:window-x="60"
     inkscape:window-y="-8"
     inkscape:window-maximized="1"
     inkscape:snap-smooth-nodes="true"
     showguides="true"
     inkscape:snap-nodes="false"
     inkscape:object-nodes="true">
    <inkscape:grid
       type="xygrid"
       id="grid815"
       units="cm"
       spacingx="9.9999996"
       spacingy="9.9999996" />
    <inkscape:grid
       type="xygrid"
       id="grid1019"
       color="#3febff"
       opacity="0.1254902"
       empcolor="#3fe7ff"
       empopacity="0.25098039"
       empspacing="10"
       dotted="false"
       spacingx="0.99999996"
       spacingy="0.99999996"
       units="cm" />
  </sodipodi:namedview>
  <metadata
     id="metadata5">
    <rdf:RDF>
      <cc:Work
         rdf:about="">
        <dc:format>image/svg+xml</dc:format>
        <dc:type
           rdf:resource="http://purl.org/dc/dcmitype/StillImage" />
        <dc:title></dc:title>
      </cc:Work>
    </rdf:RDF>
  </metadata>
  <g
     inkscape:label="canva"
     inkscape:groupmode="layer"
     id="layer1"
     transform="translate(0,-217.00002)"
     style="display:inline;opacity:0.2"
     sodipodi:insensitive="true">
    <path
       style="fill:none;stroke:#dddddd;stroke-width:0.25;stroke-linecap:butt;stroke-linejoin:miter;stroke-miterlimit:4;stroke-dasharray:none;stroke-opacity:1"
       d="M 79.999991,247.00002 H 0"
       id="path872-1-9-3"
       inkscape:connector-curvature="0" />
    <path
       style="fill:none;stroke:#dddddd;stroke-width:0.25;stroke-linecap:butt;stroke-linejoin:miter;stroke-miterlimit:4;stroke-dasharray:none;stroke-opacity:1"
       d="M 79.999997,267.00002 H 5.4000007e-6"
       id="path872-1-9-2"
       inkscape:connector-curvature="0" />
    <path
       style="fill:none;stroke:#dddddd;stroke-width:0.25;stroke-linecap:butt;stroke-linejoin:miter;stroke-miterlimit:4;stroke-dasharray:none;stroke-opacity:1"
       d="M 79.999991,287.00002 H 0"
       id="path872-1-9-0"
       inkscape:connector-curvature="0" />
    <path
       style="fill:none;stroke:#dddddd;stroke-width:0.25;stroke-linecap:butt;stroke-linejoin:miter;stroke-miterlimit:4;stroke-dasharray:none;stroke-opacity:1"
       d="M 79.99999,227.00003 H 0"
       id="path872-1-9"
       inkscape:connector-curvature="0" />
    <path
       style="fill:none;stroke:#dddddd;stroke-width:0.25;stroke-linecap:butt;stroke-linejoin:miter;stroke-miterlimit:4;stroke-dasharray:none;stroke-opacity:1"
       d="m 29.999999,217.00003 v 79.99999"
       id="path872-1"
       inkscape:connector-curvature="0" />
    <path
       style="fill:none;stroke:#dddddd;stroke-width:0.25;stroke-linecap:butt;stroke-linejoin:miter;stroke-miterlimit:4;stroke-dasharray:none;stroke-opacity:1"
       d="m 49.999998,217.00003 v 79.99999"
       id="path872-3"
       inkscape:connector-curvature="0" />
    <path
       style="fill:none;stroke:#dddddd;stroke-width:0.25;stroke-linecap:butt;stroke-linejoin:miter;stroke-miterlimit:4;stroke-dasharray:none;stroke-opacity:1"
       d="m 69.999997,217.00003 v 79.99999"
       id="path872-9"
       inkscape:connector-curvature="0" />
    <path
       style="fill:none;stroke:#dddddd;stroke-width:0.25;stroke-linecap:butt;stroke-linejoin:miter;stroke-miterlimit:4;stroke-dasharray:none;stroke-opacity:1"
       d="m 9.9999995,217.00003 v 79.99999"
       id="path872"
       inkscape:connector-curvature="0" />
    <path
       style="fill:none;stroke:#aaaaaa;stroke-width:0.5;stroke-linecap:butt;stroke-linejoin:miter;stroke-miterlimit:4;stroke-dasharray:none;stroke-opacity:1"
       d="M 0,277.00002 H 79.999996"
       id="path855-3"
       inkscape:connector-curvature="0" />
    <path
       style="fill:none;stroke:#aaaaaa;stroke-width:0.5;stroke-linecap:butt;stroke-linejoin:miter;stroke-miterlimit:4;stroke-dasharray:none;stroke-opacity:1"
       d="M 0,237.00002 H 79.999995"
       id="path855"
       inkscape:connector-curvature="0" />
    <path
       style="fill:none;stroke:#aaaaaa;stroke-width:0.5;stroke-linecap:butt;stroke-linejoin:miter;stroke-miterlimit:4;stroke-dasharray:none;stroke-opacity:1"
       d="m 59.999998,217.00003 v 79.99999"
       id="path823-2"
       inkscape:connector-curvature="0" />
    <path
       style="fill:none;stroke:#aaaaaa;stroke-width:0.5;stroke-linecap:butt;stroke-linejoin:miter;stroke-miterlimit:4;stroke-dasharray:none;stroke-opacity:1"
       d="m 19.999999,217.00003 v 79.99999"
       id="path823"
       inkscape:connector-curvature="0" />
    <rect
       style="opacity:1;vector-effect:none;fill:none;fill-opacity:1;fill-rule:nonzero;stroke:#444444;stroke-width:1;stroke-linecap:square;stroke-linejoin:miter;stroke-miterlimit:3.9000001;stroke-dasharray:none;stroke-dashoffset:0;stroke-opacity:1;paint-order:normal"
       id="rect817"
       width="79.999992"
       height="79.999992"
       x="0"
       y="217.00003" />
    <path
       style="fill:none;stroke:#444444;stroke-width:0.5;stroke-linecap:butt;stroke-linejoin:miter;stroke-miterlimit:4;stroke-dasharray:none;stroke-opacity:1"
       d="m 39.999999,217.00003 v 79.99999"
       id="path819"
       inkscape:connector-curvature="0" />
    <path
       style="fill:none;stroke:#444444;stroke-width:0.5;stroke-linecap:butt;stroke-linejoin:miter;stroke-miterlimit:4;stroke-dasharray:none;stroke-opacity:1"
       d="M 0,257.00002 H 79.999995"
       id="path821"
       inkscape:connector-curvature="0" />
    <ellipse
       style="opacity:1;vector-effect:none;fill:none;fill-opacity:1;fill-rule:nonzero;stroke:#444444;stroke-width:0.5;stroke-linecap:square;stroke-linejoin:miter;stroke-miterlimit:4;stroke-dasharray:none;stroke-dashoffset:0;stroke-opacity:0.94117647;paint-order:normal"
       id="path943"
       cx="40"
       cy="257.00003"
       rx="39.843849"
       ry="39.843853" />
    <path
       style="fill:none;stroke:#444444;stroke-width:0.5;stroke-linecap:butt;stroke-linejoin:miter;stroke-miterlimit:4;stroke-dasharray:none;stroke-opacity:1"
       d="m 0,217.00003 c 0,0 0,39.99999 39.999999,39.99999 39.999996,0 39.999996,-39.99999 39.999996,-39.99999"
       id="path945"
       inkscape:connector-curvature="0" />
    <path
       style="fill:none;stroke:#444444;stroke-width:0.5;stroke-linecap:butt;stroke-linejoin:miter;stroke-miterlimit:4;stroke-dasharray:none;stroke-opacity:1"
       d="m 79.999996,297.25001 c 0,0 0,-39.99999 -39.999999,-39.99999 C 2.9999969e-7,257.25002 2.9999969e-7,297.25001 2.9999969e-7,297.25001"
       id="path945-1"
       inkscape:connector-curvature="0" />
    <path
       style="fill:none;stroke:#444444;stroke-width:0.5;stroke-linecap:butt;stroke-linejoin:miter;stroke-miterlimit:4;stroke-dasharray:none;stroke-opacity:1"
       d="m 80.12499,217.12502 c 0,0 -39.99999,0 -39.99999,40 0,40 39.99999,40 39.99999,40"
       id="path945-1-9"
       inkscape:connector-curvature="0" />
    <path
       style="fill:none;stroke:#444444;stroke-width:0.5;stroke-linecap:butt;stroke-linejoin:miter;stroke-miterlimit:4;stroke-dasharray:none;stroke-opacity:1"
       d="m -0.1249963,297.25002 c 0,0 39.9999913,0 39.9999913,-40 0,-40 -39.9999913,-40 -39.9999913,-40"
       id="path945-1-9-5"
       inkscape:connector-curvature="0" />
  </g>
  <g
     inkscape:groupmode="layer"
     id="layer2"
     inkscape:label="rune">
    <path
       style="fill:#40224a;fill-opacity:1;stroke:#40224a;stroke-width:0.10545635;stroke-linecap:round;stroke-linejoin:round;stroke-miterlimit:4;stroke-dasharray:none;stroke-opacity:1"
       d="m 51.947163,50.000002 c 0,-3.559128 -4.671963,-1.423652 -4.894437,0 0.222474,1.423651 4.894437,3.559127 4.894437,0 z"
       id="path1038-2"
       inkscape:connector-curvature="0"
       sodipodi:nodetypes="scs" />
    <path
       style="fill:#40224a;fill-opacity:1;stroke-width:0.05615344"
       d="m 30.888355,40.054794 c 1.293009,0.188395 2.241667,0.635769 3.247728,1.531583 1.776027,1.581407 2.310006,2.27755 3.453493,4.502296 0.971782,1.890677 1.715974,3.630942 3.010527,3.634081 0.333986,7.89e-4 0.409979,-0.02404 0.820939,-0.26838 0.249087,-0.1481 0.464224,-0.248071 0.478084,-0.222158 0.0451,0.08431 -0.160081,0.917383 -0.26652,1.082114 -0.399242,0.617889 -1.840895,0.773984 -3.723621,0.403179 -2.361049,-0.465011 -2.840441,-1.996919 -5.313795,-5.680467 -0.666116,-0.992046 -1.977094,-2.147525 -2.43653,-2.147525 -0.229952,0 -1.418337,1.349496 -1.913587,2.173011 -2.149583,3.574393 -2.517921,4.522359 -2.452947,6.312974 0.04645,1.27979 0.572792,2.882104 1.152632,3.508806 0.247974,0.268016 0.25988,0.273478 0.522987,0.239894 0.715449,-0.09132 1.328931,-0.49751 1.692623,-1.120684 0.697107,-1.194472 0.568766,-2.856403 -0.242264,-3.137175 -0.628325,-0.21752 -0.207624,-0.760514 0.709254,-0.915424 0.763545,-0.129005 2.068551,0.191906 2.590918,0.637124 0.887788,0.756669 1.1076,2.594723 0.480374,4.016844 -0.55465,1.257564 -1.946483,2.16473 -3.917555,2.553371 -0.430609,0.08491 -0.970986,0.194899 -1.200834,0.244435 -2.209579,0.476192 -5.466823,-0.850295 -6.824782,-2.779329 -0.940016,-1.335316 -1.235115,-2.083274 -1.61188,-4.085416 -0.354793,-1.885366 -0.06195,-3.401668 0.98806,-5.116529 1.052682,-1.719186 3.537223,-3.865045 5.40793,-4.670754 1.241228,-0.53459 3.995953,-0.892978 5.348766,-0.695871 z"
       id="path12846-6"
       inkscape:connector-curvature="0"
       sodipodi:nodetypes="csscccsscsccccsccscccccccc" />
    <path
       style="fill:#40224a;fill-opacity:1;stroke:#40224a;stroke-width:0.10545635;stroke-linecap:round;stroke-linejoin:round;stroke-miterlimit:4;stroke-dasharray:none;stroke-opacity:1"
       d="m 61.947163,50.000002 c 0,-3.559128 -4.671963,-1.423652 -4.894437,0 0.222474,1.423651 4.894437,3.559127 4.894437,0 z"
       id="path1038-2-0"
       inkscape:connector-curvature="0"
       sodipodi:nodetypes="scs" />
    <path
       style="fill:#40224a;fill-opacity:1;stroke:#40224a;stroke-width:0.10545635;stroke-linecap:round;stroke-linejoin:round;stroke-miterlimit:4;stroke-dasharray:none;stroke-opacity:1"
       d="m 28.052834,30.000002 c 0,-3.559128 4.671963,-1.423652 4.894437,0 -0.222474,1.423651 -4.894437,3.559127 -4.894437,0 z"
       id="path1038-2-2"
       inkscape:connector-curvature="0"
       sodipodi:nodetypes="scs" />
    <path
       style="fill:#40224a;fill-opacity:1;stroke:#40224a;stroke-width:0.10545635;stroke-linecap:round;stroke-linejoin:round;stroke-miterlimit:4;stroke-dasharray:none;stroke-opacity:1"
       d="m 18.052834,30.000002 c 0,-3.559128 4.671963,-1.423652 4.894437,0 -0.222474,1.423651 -4.894437,3.559127 -4.894437,0 z"
       id="path1038-2-0-7"
       inkscape:connector-curvature="0"
       sodipodi:nodetypes="scs" />
    <path
       style="fill:#40224a;fill-opacity:1;stroke-width:0.05615344"
       d="m 49.564396,39.945209 c -1.293009,-0.188395 -2.241667,-0.635769 -3.247728,-1.531583 -1.776027,-1.581407 -2.310006,-2.27755 -3.453493,-4.502296 -0.971782,-1.890677 -1.715974,-3.630942 -3.010527,-3.634081 -0.333986,-7.94e-4 -0.409979,0.02404 -0.820939,0.26838 -0.249087,0.1481 -0.464224,0.248071 -0.478084,0.222158 -0.0451,-0.08431 0.160081,-0.917383 0.26652,-1.082114 0.399242,-0.617889 1.840895,-0.773984 3.723621,-0.403179 2.361049,0.465011 2.840441,1.996919 5.313795,5.680467 0.666116,0.992046 1.977094,2.147525 2.43653,2.147525 0.229952,0 1.418337,-1.349496 1.913587,-2.173011 2.149583,-3.574393 2.517922,-4.522359 2.452948,-6.312974 -0.04645,-1.27979 -0.572793,-2.882104 -1.152633,-3.508806 -0.247973,-0.268016 -0.259879,-0.273478 -0.522987,-0.239894 -0.715449,0.09132 -1.328931,0.49751 -1.692623,1.120684 -0.697107,1.194472 -0.568766,2.856403 0.242265,3.137175 0.628324,0.21752 0.207623,0.760514 -0.709255,0.915424 -0.763545,0.129005 -2.068551,-0.191906 -2.590918,-0.637124 -0.887788,-0.756669 -1.1076,-2.594723 -0.480374,-4.016844 0.55465,-1.257564 1.946483,-2.16473 3.917555,-2.553371 0.430609,-0.08491 0.970986,-0.194899 1.200834,-0.244435 2.209579,-0.476192 5.466823,0.850295 6.824782,2.779329 0.940016,1.335316 1.235115,2.083274 1.61188,4.085416 0.354793,1.885366 0.06195,3.401668 -0.98806,5.116529 -1.052682,1.719186 -3.537223,3.865045 -5.40793,4.670754 -1.241228,0.53459 -3.995953,0.892978 -5.348766,0.695871 z"
       id="path12846-6-9"
       inkscape:connector-curvature="0"
       sodipodi:nodetypes="csscccsscsccccsccscccccccc" />
  </g>
</svg>
