<?xml version="1.0" encoding="UTF-8" standalone="no"?>
<!-- Created with Inkscape (http://www.inkscape.org/) -->

<svg
   xmlns:dc="http://purl.org/dc/elements/1.1/"
   xmlns:cc="http://creativecommons.org/ns#"
   xmlns:rdf="http://www.w3.org/1999/02/22-rdf-syntax-ns#"
   xmlns:svg="http://www.w3.org/2000/svg"
   xmlns="http://www.w3.org/2000/svg"
   xmlns:sodipodi="http://sodipodi.sourceforge.net/DTD/sodipodi-0.dtd"
   xmlns:inkscape="http://www.inkscape.org/namespaces/inkscape"
   width="8cm"
   height="8cm"
   viewBox="0 0 80 79.999998"
   version="1.1"
   id="svg8"
   inkscape:version="0.92.4 (5da689c313, 2019-01-14)"
   sodipodi:docname="runic-yemet.svg">
  <defs
     id="defs2" />
  <sodipodi:namedview
     id="base"
     pagecolor="#ffffff"
     bordercolor="#666666"
     borderopacity="1.0"
     inkscape:pageopacity="0.0"
     inkscape:pageshadow="2"
     inkscape:zoom="2.8"
     inkscape:cx="112.57582"
     inkscape:cy="162.96862"
     inkscape:document-units="mm"
     inkscape:current-layer="layer2"
     showgrid="true"
     units="cm"
     inkscape:snap-bbox="false"
     inkscape:snap-bbox-edge-midpoints="false"
     inkscape:window-width="1852"
     inkscape:window-height="1057"
     inkscape:window-x="60"
     inkscape:window-y="-8"
     inkscape:window-maximized="1"
     inkscape:snap-smooth-nodes="true"
     showguides="true"
     inkscape:snap-nodes="false"
     inkscape:object-nodes="true"
     inkscape:snap-others="false">
    <inkscape:grid
       type="xygrid"
       id="grid815"
       units="cm"
       spacingx="9.9999996"
       spacingy="9.9999996" />
    <inkscape:grid
       type="xygrid"
       id="grid1019"
       color="#3febff"
       opacity="0.1254902"
       empcolor="#3fe7ff"
       empopacity="0.25098039"
       empspacing="10"
       dotted="false"
       spacingx="0.99999996"
       spacingy="0.99999996"
       units="cm" />
  </sodipodi:namedview>
  <metadata
     id="metadata5">
    <rdf:RDF>
      <cc:Work
         rdf:about="">
        <dc:format>image/svg+xml</dc:format>
        <dc:type
           rdf:resource="http://purl.org/dc/dcmitype/StillImage" />
        <dc:title />
      </cc:Work>
    </rdf:RDF>
  </metadata>
  <g
     inkscape:label="canva"
     inkscape:groupmode="layer"
     id="layer1"
     transform="translate(0,-217.00002)"
     style="display:inline;opacity:0.2"
     sodipodi:insensitive="true">
    <path
       style="fill:none;stroke:#dddddd;stroke-width:0.25;stroke-linecap:butt;stroke-linejoin:miter;stroke-miterlimit:4;stroke-dasharray:none;stroke-opacity:1"
       d="M 79.999991,247.00002 H 0"
       id="path872-1-9-3"
       inkscape:connector-curvature="0" />
    <path
       style="fill:none;stroke:#dddddd;stroke-width:0.25;stroke-linecap:butt;stroke-linejoin:miter;stroke-miterlimit:4;stroke-dasharray:none;stroke-opacity:1"
       d="M 79.999997,267.00002 H 5.4000007e-6"
       id="path872-1-9-2"
       inkscape:connector-curvature="0" />
    <path
       style="fill:none;stroke:#dddddd;stroke-width:0.25;stroke-linecap:butt;stroke-linejoin:miter;stroke-miterlimit:4;stroke-dasharray:none;stroke-opacity:1"
       d="M 79.999991,287.00002 H 0"
       id="path872-1-9-0"
       inkscape:connector-curvature="0" />
    <path
       style="fill:none;stroke:#dddddd;stroke-width:0.25;stroke-linecap:butt;stroke-linejoin:miter;stroke-miterlimit:4;stroke-dasharray:none;stroke-opacity:1"
       d="M 79.99999,227.00003 H 0"
       id="path872-1-9"
       inkscape:connector-curvature="0" />
    <path
       style="fill:none;stroke:#dddddd;stroke-width:0.25;stroke-linecap:butt;stroke-linejoin:miter;stroke-miterlimit:4;stroke-dasharray:none;stroke-opacity:1"
       d="m 29.999999,217.00003 v 79.99999"
       id="path872-1"
       inkscape:connector-curvature="0" />
    <path
       style="fill:none;stroke:#dddddd;stroke-width:0.25;stroke-linecap:butt;stroke-linejoin:miter;stroke-miterlimit:4;stroke-dasharray:none;stroke-opacity:1"
       d="m 49.999998,217.00003 v 79.99999"
       id="path872-3"
       inkscape:connector-curvature="0" />
    <path
       style="fill:none;stroke:#dddddd;stroke-width:0.25;stroke-linecap:butt;stroke-linejoin:miter;stroke-miterlimit:4;stroke-dasharray:none;stroke-opacity:1"
       d="m 69.999997,217.00003 v 79.99999"
       id="path872-9"
       inkscape:connector-curvature="0" />
    <path
       style="fill:none;stroke:#dddddd;stroke-width:0.25;stroke-linecap:butt;stroke-linejoin:miter;stroke-miterlimit:4;stroke-dasharray:none;stroke-opacity:1"
       d="m 9.9999995,217.00003 v 79.99999"
       id="path872"
       inkscape:connector-curvature="0" />
    <path
       style="fill:none;stroke:#aaaaaa;stroke-width:0.5;stroke-linecap:butt;stroke-linejoin:miter;stroke-miterlimit:4;stroke-dasharray:none;stroke-opacity:1"
       d="M 0,277.00002 H 79.999996"
       id="path855-3"
       inkscape:connector-curvature="0" />
    <path
       style="fill:none;stroke:#aaaaaa;stroke-width:0.5;stroke-linecap:butt;stroke-linejoin:miter;stroke-miterlimit:4;stroke-dasharray:none;stroke-opacity:1"
       d="M 0,237.00002 H 79.999995"
       id="path855"
       inkscape:connector-curvature="0" />
    <path
       style="fill:none;stroke:#aaaaaa;stroke-width:0.5;stroke-linecap:butt;stroke-linejoin:miter;stroke-miterlimit:4;stroke-dasharray:none;stroke-opacity:1"
       d="m 59.999998,217.00003 v 79.99999"
       id="path823-2"
       inkscape:connector-curvature="0" />
    <path
       style="fill:none;stroke:#aaaaaa;stroke-width:0.5;stroke-linecap:butt;stroke-linejoin:miter;stroke-miterlimit:4;stroke-dasharray:none;stroke-opacity:1"
       d="m 19.999999,217.00003 v 79.99999"
       id="path823"
       inkscape:connector-curvature="0" />
    <rect
       style="opacity:1;vector-effect:none;fill:none;fill-opacity:1;fill-rule:nonzero;stroke:#444444;stroke-width:1;stroke-linecap:square;stroke-linejoin:miter;stroke-miterlimit:3.9000001;stroke-dasharray:none;stroke-dashoffset:0;stroke-opacity:1;paint-order:normal"
       id="rect817"
       width="79.999992"
       height="79.999992"
       x="0"
       y="217.00003" />
    <path
       style="fill:none;stroke:#444444;stroke-width:0.5;stroke-linecap:butt;stroke-linejoin:miter;stroke-miterlimit:4;stroke-dasharray:none;stroke-opacity:1"
       d="m 39.999999,217.00003 v 79.99999"
       id="path819"
       inkscape:connector-curvature="0" />
    <path
       style="fill:none;stroke:#444444;stroke-width:0.5;stroke-linecap:butt;stroke-linejoin:miter;stroke-miterlimit:4;stroke-dasharray:none;stroke-opacity:1"
       d="M 0,257.00002 H 79.999995"
       id="path821"
       inkscape:connector-curvature="0" />
    <ellipse
       style="opacity:1;vector-effect:none;fill:none;fill-opacity:1;fill-rule:nonzero;stroke:#444444;stroke-width:0.5;stroke-linecap:square;stroke-linejoin:miter;stroke-miterlimit:4;stroke-dasharray:none;stroke-dashoffset:0;stroke-opacity:0.94117647;paint-order:normal"
       id="path943"
       cx="40"
       cy="257.00003"
       rx="39.843849"
       ry="39.843853" />
    <path
       style="fill:none;stroke:#444444;stroke-width:0.5;stroke-linecap:butt;stroke-linejoin:miter;stroke-miterlimit:4;stroke-dasharray:none;stroke-opacity:1"
       d="m 0,217.00003 c 0,0 0,39.99999 39.999999,39.99999 39.999996,0 39.999996,-39.99999 39.999996,-39.99999"
       id="path945"
       inkscape:connector-curvature="0" />
    <path
       style="fill:none;stroke:#444444;stroke-width:0.5;stroke-linecap:butt;stroke-linejoin:miter;stroke-miterlimit:4;stroke-dasharray:none;stroke-opacity:1"
       d="m 79.999996,297.25001 c 0,0 0,-39.99999 -39.999999,-39.99999 C 2.9999969e-7,257.25002 2.9999969e-7,297.25001 2.9999969e-7,297.25001"
       id="path945-1"
       inkscape:connector-curvature="0" />
    <path
       style="fill:none;stroke:#444444;stroke-width:0.5;stroke-linecap:butt;stroke-linejoin:miter;stroke-miterlimit:4;stroke-dasharray:none;stroke-opacity:1"
       d="m 80.12499,217.12502 c 0,0 -39.99999,0 -39.99999,40 0,40 39.99999,40 39.99999,40"
       id="path945-1-9"
       inkscape:connector-curvature="0" />
    <path
       style="fill:none;stroke:#444444;stroke-width:0.5;stroke-linecap:butt;stroke-linejoin:miter;stroke-miterlimit:4;stroke-dasharray:none;stroke-opacity:1"
       d="m -0.1249963,297.25002 c 0,0 39.9999913,0 39.9999913,-40 0,-40 -39.9999913,-40 -39.9999913,-40"
       id="path945-1-9-5"
       inkscape:connector-curvature="0" />
  </g>
  <g
     inkscape:groupmode="layer"
     id="layer2"
     inkscape:label="rune">
    <path
       style="fill:#40224a;fill-opacity:1;stroke-width:0.06427174"
       d="m 36.241407,70.61077 c -0.950375,-0.153913 -2.796613,-0.755794 -4.094387,-1.334799 -0.534573,-0.238496 -1.227126,-0.728463 -1.693321,-1.198005 -0.347352,-0.34984 -0.530648,-0.607822 -0.781451,-1.099845 -0.411256,-0.806793 -0.556262,-1.238267 -0.797753,-2.37376 -0.436513,-2.052497 -0.281571,-5.099088 0.344056,-6.765094 0.415099,-1.105373 1.23671,-2.308325 1.990263,-2.914004 0.889978,-0.715331 2.410974,-1.486918 3.486134,-1.76848 0.962182,-0.251972 1.537246,-0.305619 2.912738,-0.271738 1.068889,0.02631 1.430379,0.06262 2.29677,0.230558 1.854029,0.359375 2.79432,0.786082 3.45585,1.568266 0.353134,0.417545 0.426395,0.55575 0.534748,1.008824 0.141527,0.591826 0.111509,0.99976 -0.123823,1.682502 -0.294649,0.854854 -0.485922,1.152935 -1.194937,1.862203 -0.699535,0.699791 -1.169162,0.971813 -1.886137,1.092524 -0.498917,0.084 -0.808567,0.04413 -1.0221,-0.131587 l -0.14918,-0.122761 0.556534,-0.546569 c 0.728305,-0.715259 0.987044,-1.207515 0.983155,-1.87047 -0.0029,-0.528239 -0.198974,-0.979165 -0.56498,-1.3006 -0.484796,-0.425753 -1.4028,-0.731006 -2.472678,-0.822197 l -0.469735,-0.04006 -0.46209,0.28929 c -0.74285,0.465064 -1.299644,1.127711 -1.690652,2.012056 -0.209835,0.474591 -0.575115,1.912764 -0.772726,3.042385 -0.203874,1.16543 -0.185106,1.978117 0.07201,3.117552 0.282824,1.253387 0.486413,1.805333 0.900988,2.442623 0.569017,0.874711 0.951298,1.212352 1.909684,1.686695 0.445726,0.220605 0.964752,0.438592 1.153394,0.484412 0.384767,0.09347 1.964204,0.09884 2.127141,0.0072 0.09679,-0.0544 1.963153,-1.825551 3.008875,-2.855353 0.270408,-0.266291 0.629219,-0.70018 0.797357,-0.964195 0.168146,-0.264014 0.455619,-0.668042 0.638828,-0.897845 0.438016,-0.549397 1.113735,-1.676719 1.271458,-2.121223 0.153296,-0.432025 0.268103,-2.297617 0.267018,-4.338862 l -5.8e-4,-1.349867 -0.241017,-0.899911 c -0.330939,-1.235692 -0.661051,-2.159717 -0.926232,-2.592672 -0.122675,-0.200277 -0.387136,-0.63894 -0.587703,-0.974798 -0.586899,-0.982805 -1.191993,-1.892204 -1.446569,-2.174062 -0.643569,-0.71252 -3.149729,-1.969058 -6.42961,-3.223677 -0.530463,-0.202907 -1.079915,-0.427229 -1.221019,-0.498479 -0.141098,-0.07126 -0.32884,-0.151864 -0.4172,-0.179125 -0.509164,-0.157088 -1.965143,-0.867737 -2.505023,-1.22267 -0.346058,-0.227516 -0.95785,-0.725757 -1.359533,-1.107209 -0.401677,-0.381445 -0.840118,-0.776825 -0.974308,-0.878613 -0.293941,-0.222969 -1.009,-1.160065 -1.241523,-1.627028 -0.268201,-0.538638 -0.211358,-0.677245 0.596496,-1.454563 0.786287,-0.756568 1.270739,-1.088808 2.020379,-1.385607 1.183356,-0.468507 2.696777,-0.586448 4.227537,-0.32946 0.410397,0.0689 1.032121,0.156253 1.381611,0.194112 0.948388,0.102741 2.308881,0.403846 3.63813,0.805195 0.489026,0.147654 0.653948,0.164841 1.574466,0.164068 1.194588,-0.0012 1.701048,-0.07041 2.002523,-0.274402 0.324396,-0.219514 1.049416,-1.168595 1.225147,-1.60375 0.188932,-0.467869 0.33637,-1.140196 0.337867,-1.540708 0.0011,-0.32611 -0.170854,-1.226532 -0.379089,-1.983668 -0.180968,-0.658007 -0.524374,-1.33185 -0.830743,-1.630105 l -0.254838,-0.248088 -0.375658,0.200463 c -0.747203,0.398725 -1.077958,0.867604 -1.061576,1.504906 0.01619,0.629614 0.125494,1.142117 0.29603,1.387987 0.279068,0.402337 0.446672,0.566155 0.719344,0.703107 0.312453,0.156931 0.370555,0.26686 0.239772,0.453624 -0.166843,0.238252 -0.520751,0.34242 -1.276137,0.375611 -0.608878,0.02676 -0.802536,0.0079 -1.396548,-0.135385 -1.07181,-0.258684 -1.824643,-0.710922 -2.107879,-1.266242 -0.176736,-0.346513 -0.267418,-1.0633 -0.196683,-1.554685 0.118221,-0.821257 0.431221,-1.41857 1.133578,-2.163285 0.912113,-0.967121 2.37936,-1.420398 4.597814,-1.420398 1.053925,0 1.744755,0.111292 2.724177,0.438877 0.95377,0.318996 1.658374,0.743711 2.311475,1.393287 0.841052,0.836517 1.210535,1.702524 1.206599,2.828098 -0.0029,0.833085 -0.149644,1.379533 -0.647262,2.410479 -0.609045,1.261801 -1.725323,2.563137 -2.677323,3.121175 -0.421943,0.247338 -1.122663,0.523447 -1.695398,0.668046 -0.800836,0.202199 -2.200598,0.388983 -2.910224,0.388349 -0.853737,-5.8e-4 -3.440264,-0.172093 -3.941115,-0.261053 -0.905217,-0.160766 -2.257153,-0.559399 -3.003542,-0.885607 -0.167448,-0.07319 -0.538834,-0.177533 -0.825309,-0.231892 -0.713533,-0.135385 -1.271013,-0.284083 -1.490288,-0.397501 -0.164162,-0.08491 -0.219177,-0.08337 -0.516966,0.01452 -0.793231,0.260751 -1.881104,0.776483 -2.481681,1.176498 -0.07656,0.05098 -0.05567,0.129455 0.124596,0.468083 0.78498,1.474479 1.707751,2.389199 3.116332,3.089139 0.44918,0.223203 1.66295,0.646297 2.634825,0.918441 0.614114,0.171964 3.031591,0.995608 4.112899,1.401284 1.803233,0.676506 3.144307,1.378498 4.899801,2.564808 1.539079,1.040068 2.531005,2.199205 3.040878,3.553491 1.229065,3.264571 1.610703,4.415375 1.769304,5.335196 0.414512,2.403999 0.425501,2.759483 0.159047,5.144768 -0.111638,0.999416 -0.511463,2.147102 -1.233599,3.541006 -0.74665,1.441221 -1.0195,1.776329 -2.127785,2.613263 -0.894905,0.675811 -1.224165,0.841819 -2.558255,1.289863 -1.524839,0.512097 -3.262134,0.71623 -4.816957,0.565987 -0.439693,-0.0425 -0.775519,-0.04355 -0.963957,-0.0029 -0.159053,0.03421 -0.838649,0.07495 -1.510211,0.0906 -1.001535,0.02334 -1.359638,0.006 -1.992184,-0.09643 z M 33.702975,30.7128 c -0.615833,-0.06373 -1.338339,-0.255961 -2.152845,-0.572804 -1.510902,-0.587742 -1.71351,-0.658652 -2.34564,-0.820913 -0.335777,-0.08619 -0.786716,-0.174956 -1.002079,-0.197258 -0.384036,-0.03977 -0.904915,-0.169672 -2.041586,-0.509153 -0.871244,-0.260206 -1.049465,-0.236132 -2.239009,0.302465 -0.201559,0.09126 -0.56036,0.201665 -0.797329,0.245335 -0.388459,0.07159 -0.463065,0.111792 -0.758145,0.408458 -0.424033,0.426311 -1.090613,0.794738 -1.703207,0.941392 -0.268259,0.06422 -0.506889,0.116989 -0.530288,0.117262 -0.0234,2.67e-4 -0.06259,-0.118103 -0.08707,-0.263074 -0.04127,-0.244239 -0.02688,-0.281655 0.196107,-0.510059 0.132345,-0.135563 0.410716,-0.337159 0.618596,-0.447987 0.228268,-0.121692 0.460147,-0.31074 0.585473,-0.477316 0.114133,-0.1517 0.337648,-0.366382 0.496705,-0.477083 0.159055,-0.110695 0.476001,-0.331155 0.704326,-0.48991 0.987834,-0.686843 1.651455,-0.86998 3.14573,-0.868098 0.64425,5.8e-4 1.218727,0.03507 1.451725,0.08663 1.011786,0.22383 2.04565,0.420175 2.570562,0.488192 0.662019,0.08579 2.071801,0.390172 2.827618,0.610505 0.573826,0.167278 1.421364,0.35812 1.584823,0.356861 0.239461,-0.0017 0.834103,-0.979683 1.109776,-1.824925 0.225179,-0.690414 0.218899,-1.399094 -0.02787,-3.143204 -0.227112,-1.605289 -0.277402,-1.816505 -0.525808,-2.208291 -0.169402,-0.267186 -0.20569,-0.291926 -0.377713,-0.257512 -0.674835,0.134995 -1.707328,0.848349 -2.043309,1.411728 -0.25237,0.423171 -0.364954,1.130448 -0.298532,1.875355 0.03547,0.398104 0.02485,0.466347 -0.09255,0.592179 -0.284519,0.30502 -1.148188,0.35131 -1.662089,0.08908 -0.537749,-0.274409 -1.025758,-1.004992 -1.17809,-1.763678 -0.06489,-0.323188 -0.05706,-0.410896 0.071,-0.797386 0.223281,-0.673703 0.407035,-0.935326 0.982336,-1.39863 0.864627,-0.696295 2.398216,-1.345825 3.576874,-1.514929 0.701492,-0.10064 1.938261,-0.04105 2.608435,0.125659 0.641747,0.159649 1.556808,0.526874 2.031321,0.815195 0.834308,0.506935 1.681845,1.57092 2.040007,2.560988 0.553045,1.528794 0.422227,2.782372 -0.473067,4.533078 -0.649514,1.270098 -1.237135,1.911626 -2.173175,2.372551 -0.952152,0.468856 -2.796004,0.743398 -4.092048,0.609297 z m 24.278407,-7.861781 c -0.278302,-0.08391 -0.54716,-0.306682 -0.593629,-0.491862 -0.05404,-0.215328 0.372392,-1.075285 1.270479,-2.562161 0.106767,-0.176767 0.31095,-0.533528 0.453737,-0.792799 0.162194,-0.294517 0.408452,-0.610674 0.656276,-0.842556 0.505059,-0.472571 0.964986,-0.619986 1.763499,-0.565243 1.183395,0.08114 1.667678,0.66803 1.44189,1.747432 -0.198469,0.948819 -0.606806,1.529142 -1.540723,2.189646 -0.247418,0.174984 -0.67621,0.496123 -0.952881,0.713645 -0.628436,0.494096 -1.113787,0.669847 -1.827888,0.661904 -0.273182,-0.0029 -0.575029,-0.02915 -0.67076,-0.05801 z M 48.298811,12.179747 c -0.314748,-0.07432 -0.555658,-0.27635 -0.546202,-0.458029 0.0085,-0.163105 0.546334,-1.43576 1.026281,-2.428412 0.160795,-0.332559 0.506279,-0.932834 0.767746,-1.333944 0.656563,-1.0072001 1.034607,-1.2421257 2.000068,-1.2428787 0.39355,-3.151e-4 0.519352,0.029973 0.867564,0.208805 0.331581,0.1702952 0.434134,0.2624146 0.551855,0.4957166 0.268717,0.5325331 0.181878,1.1515631 -0.302428,2.1558751 -0.433123,0.89816 -0.990847,1.428902 -2.146257,2.042401 -1.089237,0.578363 -1.598296,0.706961 -2.218627,0.560466 z"
       id="path12922"
       inkscape:connector-curvature="0" />
  </g>
</svg>
