<?xml version="1.0" encoding="UTF-8" standalone="no"?>
<!-- Created with Inkscape (http://www.inkscape.org/) -->

<svg
   xmlns:osb="http://www.openswatchbook.org/uri/2009/osb"
   xmlns:dc="http://purl.org/dc/elements/1.1/"
   xmlns:cc="http://creativecommons.org/ns#"
   xmlns:rdf="http://www.w3.org/1999/02/22-rdf-syntax-ns#"
   xmlns:svg="http://www.w3.org/2000/svg"
   xmlns="http://www.w3.org/2000/svg"
   xmlns:xlink="http://www.w3.org/1999/xlink"
   xmlns:sodipodi="http://sodipodi.sourceforge.net/DTD/sodipodi-0.dtd"
   xmlns:inkscape="http://www.inkscape.org/namespaces/inkscape"
   width="60cm"
   height="60cm"
   viewBox="0 0 600 600"
   version="1.1"
   id="svg937"
   inkscape:version="0.92.4 (5da689c313, 2019-01-14)"
   sodipodi:docname="dexterity-icon.svg">
  <defs
     id="defs931">
    <linearGradient
       id="linearGradient3258"
       osb:paint="solid">
      <stop
         style="stop-color:#ffffff;stop-opacity:1;"
         offset="0"
         id="stop3256" />
    </linearGradient>
    <linearGradient
       id="linearGradient1766"
       osb:paint="solid">
      <stop
         style="stop-color:#ffffff;stop-opacity:1;"
         offset="0"
         id="stop1764" />
    </linearGradient>
    <pattern
       inkscape:collect="always"
       xlink:href="#Strips1_1-6-1"
       id="pattern3204-1-0"
       patternTransform="matrix(-10.039377,10.039377,-18.503942,-18.503942,415.74798,149.15078)" />
    <pattern
       inkscape:stockid="Stripes 1:1"
       id="Strips1_1-6-1"
       patternTransform="translate(0,0) scale(10,10)"
       height="1"
       width="2"
       patternUnits="userSpaceOnUse"
       inkscape:collect="always">
      <rect
         id="rect2486-0-6"
         height="2"
         width="1"
         y="-0.5"
         x="0"
         style="fill:black;stroke:none" />
    </pattern>
  </defs>
  <sodipodi:namedview
     id="base"
     pagecolor="#ffffff"
     bordercolor="#666666"
     borderopacity="1.0"
     inkscape:pageopacity="0.0"
     inkscape:pageshadow="2"
     inkscape:zoom="0.2245064"
     inkscape:cx="1744.7758"
     inkscape:cy="1028.9246"
     inkscape:document-units="mm"
     inkscape:current-layer="layer1"
     showgrid="true"
     showguides="false"
     fit-margin-top="0"
     fit-margin-left="0"
     fit-margin-right="0"
     fit-margin-bottom="0"
     inkscape:snap-bbox="false"
     inkscape:snap-global="true"
     inkscape:snap-nodes="true"
     inkscape:snap-others="true"
     inkscape:bbox-nodes="true"
     inkscape:snap-bbox-edge-midpoints="true"
     inkscape:window-width="1920"
     inkscape:window-height="1017"
     inkscape:window-x="-8"
     inkscape:window-y="-8"
     inkscape:window-maximized="1"
     inkscape:snap-grids="false"
     inkscape:object-paths="false"
     units="cm">
    <inkscape:grid
       type="xygrid"
       id="grid1514"
       originx="0"
       originy="0"
       enabled="true"
       units="mm"
       spacingx="1"
       spacingy="1" />
  </sodipodi:namedview>
  <metadata
     id="metadata934">
    <rdf:RDF>
      <cc:Work
         rdf:about="">
        <dc:format>image/svg+xml</dc:format>
        <dc:type
           rdf:resource="http://purl.org/dc/dcmitype/StillImage" />
        <dc:title></dc:title>
      </cc:Work>
    </rdf:RDF>
  </metadata>
  <g
     inkscape:label="Layer 1"
     inkscape:groupmode="layer"
     id="layer1"
     transform="translate(-0.00114221,302.99885)">
    <path
       style="fill:none;stroke:#000000;stroke-width:19.03886032;stroke-linecap:butt;stroke-linejoin:miter;stroke-miterlimit:4;stroke-dasharray:none;stroke-opacity:1"
       d="M 300.01364,-258.01005 40.002435,2.0011546 300.01364,262.01236 560.02485,2.0011546 Z"
       id="path5249-2"
       inkscape:connector-curvature="0"
       sodipodi:nodetypes="ccccc" />
    <path
       style="fill:none;stroke:#000000;stroke-width:6.3462863;stroke-linecap:butt;stroke-linejoin:miter;stroke-miterlimit:4;stroke-dasharray:none;stroke-opacity:1"
       d="M 300.01364,-288.01134 10.001142,2.0011546 300.01364,292.01366 590.02614,2.0011546 Z"
       id="path5799-4"
       inkscape:connector-curvature="0"
       sodipodi:nodetypes="ccccc" />
    <g
       id="g4212"
       transform="translate(-0.31122148)">
      <path
         inkscape:connector-curvature="0"
         id="path1115"
         d="M 246.67806,17.459187 C 227.69146,-34.049466 204.66305,-88.489786 197.60688,-87.159696 v 0 c -11.88399,2.24109 -23.37867,34.02081 -24.40426,56.25421 -2.26187,49.037692 11.47897,79.945704 11.47897,79.945704 l 27.9491,17.294929 -26.41083,-2.964006 c 0,0 12.97356,60.253969 38.97545,74.504489 26.00189,14.25052 26.84888,20.9502 26.84888,20.9502 0,0 17.73991,33.97183 26.34475,35.3546 1.56414,0.25183 2.99982,0.41587 4.30265,0.51522"
         style="display:inline;fill:none;stroke:#000000;stroke-width:4.55786037px;stroke-linecap:butt;stroke-linejoin:miter;stroke-opacity:1" />
      <path
         inkscape:connector-curvature="0"
         id="path1111"
         d="m 278.4966,177.55182 c -5.73879,-4.70697 -12.79289,-11.90038 -13.98459,-19.55149 -0.85254,-5.48257 1.19447,-13.43195 3.62201,-22.06497"
         style="display:inline;fill:none;stroke:#000000;stroke-width:4.55786037px;stroke-linecap:butt;stroke-linejoin:miter;stroke-opacity:1" />
      <path
         sodipodi:nodetypes="zscccsccccccz"
         inkscape:connector-curvature="0"
         id="path859"
         d="m 346.13529,-177.21499 c -15.74535,-3.89256 -47.48395,28.46684 -61.12938,55.01629 -30.09614,58.556754 -30.56445,103.919765 -30.56445,103.919765 L 278.89307,18.398594 248.32838,0.05982829 c 0,0 -17.76371,80.73238971 6.0098,112.61076171 23.77374,31.87838 21.0722,40.52319 21.0722,40.52319 0,0 2.70154,51.3296 12.42715,57.81326 9.72561,6.4839 16.20951,7.56447 16.20951,7.56447 l -0.54063,-16.74968 c 0,0 -17.29008,-25.39471 -12.42716,-42.68456 4.86269,-17.28984 38.36204,-42.68456 43.22473,-65.377722 10.39886,-44.960073 27.57619,-267.082218 11.83108,-270.974538 z"
         style="display:inline;fill:none;stroke:#000000;stroke-width:6.11292171px;stroke-linecap:butt;stroke-linejoin:miter;stroke-opacity:1" />
      <path
         sodipodi:nodetypes="ccc"
         inkscape:connector-curvature="0"
         id="path861-1"
         d="m 253.60902,161.76512 c 0,0 -62.22912,-140.005362 -58.62167,-237.311376 11.09775,126.497864 72.20657,240.626096 72.20657,240.626096"
         style="display:inline;fill:none;stroke:#000000;stroke-width:4.56503773;stroke-linecap:butt;stroke-linejoin:round;stroke-miterlimit:4;stroke-dasharray:none;stroke-opacity:1" />
      <path
         sodipodi:nodetypes="ccc"
         inkscape:connector-curvature="0"
         id="path861"
         d="m 275.68069,157.65146 c 0,0 2.13943,-205.474356 60.7849,-322.16066 -56.98106,160.4934904 -46.06144,333.77733 -46.06144,333.77733"
         style="display:inline;fill:none;stroke:#000000;stroke-width:6.12254858;stroke-linecap:butt;stroke-linejoin:round;stroke-miterlimit:4;stroke-dasharray:none;stroke-opacity:1" />
      <path
         inkscape:connector-curvature="0"
         id="path1091"
         d="m 305.4543,214.69605 c 1.88759,2.05163 3.13983,2.91457 3.13983,2.91457 l 4.93639,-11.47874 c 0,0 -3.63541,-22.61646 5.11961,-32.74986 8.75501,-10.1334 39.40772,-16.67551 49.87289,-30.45679 21.24987,-27.06144 103.14623,-171.580846 93.74824,-179.191986 h -4.6e-4 v 0 c -9.39777,-7.61091 -41.06613,4.19013 -58.68082,17.795131 -38.85069,30.006727 -53.52402,60.483388 -53.52402,60.483388 l 4.89943,32.499875 -14.8302,-22.054114 c 0,0 -4.6e-4,4.62e-4 -0.001,0.0014"
         style="display:inline;fill:none;stroke:#000000;stroke-width:4.5578599px;stroke-linecap:butt;stroke-linejoin:miter;stroke-opacity:1" />
      <path
         inkscape:connector-curvature="0"
         id="path1087"
         d="m 309.35702,134.49713 c 4.71806,25.40997 0.59608,29.91339 0.59608,29.91339 0,0 -7.41983,18.26876 -9.94948,31.34976"
         style="display:inline;fill:none;stroke:#000000;stroke-width:4.5578599px;stroke-linecap:butt;stroke-linejoin:miter;stroke-opacity:1" />
      <path
         sodipodi:nodetypes="ccc"
         inkscape:connector-curvature="0"
         id="path861-1-1"
         d="m 308.7242,167.50553 c 0,0 66.47517,-138.039909 142.99733,-198.254826 C 362.45846,59.566843 314.98746,180.00777 314.98746,180.00777"
         style="display:inline;fill:none;stroke:#000000;stroke-width:4.56503773;stroke-linecap:butt;stroke-linejoin:round;stroke-miterlimit:4;stroke-dasharray:none;stroke-opacity:1" />
    </g>
  </g>
</svg>
