<?xml version="1.0" encoding="UTF-8" standalone="no"?>
<!-- Created with Inkscape (http://www.inkscape.org/) -->

<svg
   xmlns:osb="http://www.openswatchbook.org/uri/2009/osb"
   xmlns:dc="http://purl.org/dc/elements/1.1/"
   xmlns:cc="http://creativecommons.org/ns#"
   xmlns:rdf="http://www.w3.org/1999/02/22-rdf-syntax-ns#"
   xmlns:svg="http://www.w3.org/2000/svg"
   xmlns="http://www.w3.org/2000/svg"
   xmlns:xlink="http://www.w3.org/1999/xlink"
   xmlns:sodipodi="http://sodipodi.sourceforge.net/DTD/sodipodi-0.dtd"
   xmlns:inkscape="http://www.inkscape.org/namespaces/inkscape"
   width="60cm"
   height="60cm"
   viewBox="0 0 600 600"
   version="1.1"
   id="svg937"
   inkscape:version="0.92.4 (5da689c313, 2019-01-14)"
   sodipodi:docname="luck-icon.svg">
  <defs
     id="defs931">
    <linearGradient
       id="linearGradient3258"
       osb:paint="solid">
      <stop
         style="stop-color:#ffffff;stop-opacity:1;"
         offset="0"
         id="stop3256" />
    </linearGradient>
    <linearGradient
       id="linearGradient1766"
       osb:paint="solid">
      <stop
         style="stop-color:#ffffff;stop-opacity:1;"
         offset="0"
         id="stop1764" />
    </linearGradient>
    <pattern
       inkscape:collect="always"
       xlink:href="#Strips1_1-6-1"
       id="pattern3204-1-0"
       patternTransform="matrix(-10.039377,10.039377,-18.503942,-18.503942,415.74798,149.15078)" />
    <pattern
       inkscape:stockid="Stripes 1:1"
       id="Strips1_1-6-1"
       patternTransform="translate(0,0) scale(10,10)"
       height="1"
       width="2"
       patternUnits="userSpaceOnUse"
       inkscape:collect="always">
      <rect
         id="rect2486-0-6"
         height="2"
         width="1"
         y="-0.5"
         x="0"
         style="fill:black;stroke:none" />
    </pattern>
  </defs>
  <sodipodi:namedview
     id="base"
     pagecolor="#ffffff"
     bordercolor="#666666"
     borderopacity="1.0"
     inkscape:pageopacity="0.0"
     inkscape:pageshadow="2"
     inkscape:zoom="0.15875"
     inkscape:cx="562.46557"
     inkscape:cy="811.68326"
     inkscape:document-units="mm"
     inkscape:current-layer="layer1"
     showgrid="true"
     showguides="false"
     fit-margin-top="0"
     fit-margin-left="0"
     fit-margin-right="0"
     fit-margin-bottom="0"
     inkscape:snap-bbox="false"
     inkscape:snap-global="false"
     inkscape:snap-nodes="true"
     inkscape:snap-others="true"
     inkscape:bbox-nodes="true"
     inkscape:snap-bbox-edge-midpoints="true"
     inkscape:window-width="1920"
     inkscape:window-height="1017"
     inkscape:window-x="-8"
     inkscape:window-y="-8"
     inkscape:window-maximized="1"
     inkscape:snap-grids="false"
     inkscape:object-paths="false"
     units="cm">
    <inkscape:grid
       type="xygrid"
       id="grid1514"
       originx="0"
       originy="0"
       enabled="true"
       units="mm"
       spacingx="1"
       spacingy="1" />
  </sodipodi:namedview>
  <metadata
     id="metadata934">
    <rdf:RDF>
      <cc:Work
         rdf:about="">
        <dc:format>image/svg+xml</dc:format>
        <dc:type
           rdf:resource="http://purl.org/dc/dcmitype/StillImage" />
        <dc:title />
      </cc:Work>
    </rdf:RDF>
  </metadata>
  <g
     inkscape:label="Layer 1"
     inkscape:groupmode="layer"
     id="layer1"
     transform="translate(-0.00114221,302.99885)">
    <path
       sodipodi:nodetypes="csscssc"
       style="fill:none;stroke:#000000;stroke-width:5.00021553;stroke-linecap:square;stroke-linejoin:round;stroke-miterlimit:4;stroke-dasharray:none;stroke-opacity:1"
       d="m 290.01321,12.001586 c 0,0 10.00042,30.385909 10.00042,90.003884 0,60.20719 -49.31017,90.69581 -80.00345,60.00258 -29.95628,-29.95639 -17.82082,-62.182779 -17.82082,-62.182779 0,0 -31.93169,12.430339 -62.18263,-17.820668 -30.10355,-30.103598 0.091,-80.0034484 60.00261,-80.0034484 59.91249,0 90.00387,10.0004314 90.00387,10.0004314 z"
       id="path5874"
       inkscape:connector-curvature="0" />
    <path
       style="fill:#000000;fill-opacity:1;stroke:none;stroke-width:6.52160597px;stroke-linecap:butt;stroke-linejoin:miter;stroke-opacity:1"
       d="m 195.66774,99.825271 c 6.52164,0 33.65002,-41.605393 84.78086,-78.259373 -45.61168,40.897562 -78.25922,78.259373 -78.25922,84.780962 z"
       id="path5933"
       inkscape:connector-curvature="0"
       sodipodi:nodetypes="cccc" />
    <path
       style="fill:none;stroke:#000000;stroke-width:5.00021553;stroke-linecap:butt;stroke-linejoin:miter;stroke-miterlimit:4;stroke-dasharray:none;stroke-opacity:1"
       d="m 296.24105,42.211988 c 27.67893,-25.110083 42.90207,-27.167671 68.98834,-27.167671 26.08653,0 52.1728,19.564843 52.1728,52.749273 2.5e-4,32.031681 -23.5998,51.30832 -56.20777,51.30832 -32.60797,0 -48.13783,19.85295 -48.13783,19.85295 v 19.56484 h 19.56484 c 0,0 0,-26.08652 32.60796,-26.08652 45.65136,0 66.18589,-32.605109 65.79243,-64.351277 C 430.44559,21.565898 392.75703,5.9288238 384.79422,2.0011546"
       id="path7534"
       inkscape:connector-curvature="0"
       sodipodi:nodetypes="ccsscccssc" />
    <path
       style="fill:none;stroke:#000000;stroke-width:19.03886032;stroke-linecap:butt;stroke-linejoin:miter;stroke-miterlimit:4;stroke-dasharray:none;stroke-opacity:1"
       d="M 300.01364,-258.01005 40.002435,2.0011546 300.01364,262.01236 560.02485,2.0011546 Z"
       id="path5249-2"
       inkscape:connector-curvature="0"
       sodipodi:nodetypes="ccccc" />
    <path
       style="fill:none;stroke:#000000;stroke-width:6.3462863;stroke-linecap:butt;stroke-linejoin:miter;stroke-miterlimit:4;stroke-dasharray:none;stroke-opacity:1"
       d="M 300.01364,-288.01134 10.001142,2.0011546 300.01364,292.01366 590.02614,2.0011546 Z"
       id="path5799-4"
       inkscape:connector-curvature="0"
       sodipodi:nodetypes="ccccc" />
    <path
       sodipodi:nodetypes="csscssc"
       style="fill:none;stroke:#000000;stroke-width:5.00021553;stroke-linecap:square;stroke-linejoin:round;stroke-miterlimit:4;stroke-dasharray:none;stroke-opacity:1"
       d="m 290.01326,-7.9992764 c 0,0 -30.38594,10.000431 -90.00389,10.000431 -60.20719,0 -90.69579,-49.3102246 -60.00261,-80.0034476 29.95644,-29.956287 62.18283,-17.820868 62.18283,-17.820868 0,0 -12.43036,-31.931669 17.82065,-62.182579 30.10361,-30.10359 80.00345,0.09 80.00345,60.002585 0,59.912482 -10.00043,90.0038786 -10.00043,90.0038786 z"
       id="path5874-4"
       inkscape:connector-curvature="0" />
    <path
       style="fill:#000000;fill-opacity:1;stroke:none;stroke-width:6.52160597px;stroke-linecap:butt;stroke-linejoin:miter;stroke-opacity:1"
       d="m 202.18959,-102.34474 c 0,6.521679 41.60534,33.650048 78.25932,84.780851 -40.89751,-45.611665 -78.25932,-78.259172 -84.78092,-78.259172 z"
       id="path5933-6"
       inkscape:connector-curvature="0"
       sodipodi:nodetypes="cccc" />
    <path
       sodipodi:nodetypes="csscssc"
       style="fill:none;stroke:#000000;stroke-width:5.00021553;stroke-linecap:square;stroke-linejoin:round;stroke-miterlimit:4;stroke-dasharray:none;stroke-opacity:1"
       d="m 310.01403,-7.9992764 c 0,0 -10.00042,-30.3860096 -10.00042,-90.0038786 0,-60.207195 49.31018,-90.695805 80.00345,-60.002685 29.95628,29.95649 17.82082,62.182879 17.82082,62.182879 0,0 31.93169,-12.430329 62.18263,17.820668 30.10355,30.103597 -0.091,80.0034476 -60.00261,80.0034476 -59.91249,0 -90.00387,-10.000431 -90.00387,-10.000431 z"
       id="path5874-4-4"
       inkscape:connector-curvature="0" />
    <path
       style="fill:#000000;fill-opacity:1;stroke:none;stroke-width:6.52160597px;stroke-linecap:butt;stroke-linejoin:miter;stroke-opacity:1"
       d="m 404.3595,-95.822961 c -6.52164,0 -33.65002,41.605293 -84.78086,78.259272 45.61168,-40.897462 78.25922,-78.259272 78.25922,-84.780851 z"
       id="path5933-6-8"
       inkscape:connector-curvature="0"
       sodipodi:nodetypes="cccc" />
  </g>
</svg>
