<?xml version="1.0" encoding="UTF-8" standalone="no"?>
<!-- Created with Inkscape (http://www.inkscape.org/) -->

<svg
   xmlns:osb="http://www.openswatchbook.org/uri/2009/osb"
   xmlns:dc="http://purl.org/dc/elements/1.1/"
   xmlns:cc="http://creativecommons.org/ns#"
   xmlns:rdf="http://www.w3.org/1999/02/22-rdf-syntax-ns#"
   xmlns:svg="http://www.w3.org/2000/svg"
   xmlns="http://www.w3.org/2000/svg"
   xmlns:xlink="http://www.w3.org/1999/xlink"
   xmlns:sodipodi="http://sodipodi.sourceforge.net/DTD/sodipodi-0.dtd"
   xmlns:inkscape="http://www.inkscape.org/namespaces/inkscape"
   width="60cm"
   height="60cm"
   viewBox="0 0 600 600"
   version="1.1"
   id="svg937"
   inkscape:version="0.92.4 (5da689c313, 2019-01-14)"
   sodipodi:docname="strength-icon.svg">
  <defs
     id="defs931">
    <linearGradient
       id="linearGradient3258"
       osb:paint="solid">
      <stop
         style="stop-color:#ffffff;stop-opacity:1;"
         offset="0"
         id="stop3256" />
    </linearGradient>
    <linearGradient
       id="linearGradient1766"
       osb:paint="solid">
      <stop
         style="stop-color:#ffffff;stop-opacity:1;"
         offset="0"
         id="stop1764" />
    </linearGradient>
    <pattern
       inkscape:collect="always"
       xlink:href="#Strips1_1-6-1"
       id="pattern3204-1-0"
       patternTransform="matrix(-10.039377,10.039377,-18.503942,-18.503942,415.74798,149.15078)" />
    <pattern
       inkscape:stockid="Stripes 1:1"
       id="Strips1_1-6-1"
       patternTransform="translate(0,0) scale(10,10)"
       height="1"
       width="2"
       patternUnits="userSpaceOnUse"
       inkscape:collect="always">
      <rect
         id="rect2486-0-6"
         height="2"
         width="1"
         y="-0.5"
         x="0"
         style="fill:black;stroke:none" />
    </pattern>
  </defs>
  <sodipodi:namedview
     id="base"
     pagecolor="#ffffff"
     bordercolor="#666666"
     borderopacity="1.0"
     inkscape:pageopacity="0.0"
     inkscape:pageshadow="2"
     inkscape:zoom="0.2245064"
     inkscape:cx="1744.7758"
     inkscape:cy="1028.9246"
     inkscape:document-units="mm"
     inkscape:current-layer="layer1"
     showgrid="true"
     showguides="false"
     fit-margin-top="0"
     fit-margin-left="0"
     fit-margin-right="0"
     fit-margin-bottom="0"
     inkscape:snap-bbox="false"
     inkscape:snap-global="true"
     inkscape:snap-nodes="true"
     inkscape:snap-others="true"
     inkscape:bbox-nodes="true"
     inkscape:snap-bbox-edge-midpoints="true"
     inkscape:window-width="1920"
     inkscape:window-height="1017"
     inkscape:window-x="-8"
     inkscape:window-y="-8"
     inkscape:window-maximized="1"
     inkscape:snap-grids="false"
     inkscape:object-paths="false"
     units="cm">
    <inkscape:grid
       type="xygrid"
       id="grid1514"
       originx="0"
       originy="0"
       enabled="true"
       units="mm"
       spacingx="1"
       spacingy="1" />
  </sodipodi:namedview>
  <metadata
     id="metadata934">
    <rdf:RDF>
      <cc:Work
         rdf:about="">
        <dc:format>image/svg+xml</dc:format>
        <dc:type
           rdf:resource="http://purl.org/dc/dcmitype/StillImage" />
        <dc:title></dc:title>
      </cc:Work>
    </rdf:RDF>
  </metadata>
  <g
     inkscape:label="Layer 1"
     inkscape:groupmode="layer"
     id="layer1"
     transform="translate(-0.00114221,302.99885)">
    <path
       style="fill:none;stroke:#000000;stroke-width:19.03886032;stroke-linecap:butt;stroke-linejoin:miter;stroke-miterlimit:4;stroke-dasharray:none;stroke-opacity:1"
       d="M 300.01364,-258.01005 40.002435,2.0011546 300.01364,262.01236 560.02485,2.0011546 Z"
       id="path5249-2"
       inkscape:connector-curvature="0"
       sodipodi:nodetypes="ccccc" />
    <path
       style="fill:none;stroke:#000000;stroke-width:6.3462863;stroke-linecap:butt;stroke-linejoin:miter;stroke-miterlimit:4;stroke-dasharray:none;stroke-opacity:1"
       d="M 300.01364,-288.01134 10.001142,2.0011546 300.01364,292.01366 590.02614,2.0011546 Z"
       id="path5799-4"
       inkscape:connector-curvature="0"
       sodipodi:nodetypes="ccccc" />
    <path
       style="fill:none;stroke:#000000;stroke-width:7;stroke-linecap:butt;stroke-linejoin:miter;stroke-opacity:1;stroke-miterlimit:4;stroke-dasharray:none"
       d="m 366.61107,-108.73338 c 0.54547,-20.10038 1.0252,-40.35826 1.25315,-43.32115 0.61994,-8.05794 -8.05797,-14.25641 -8.05797,-14.25641 v 1.6e-4 0 c -14.8762,-12.39679 -50.82697,-9.91751 -57.64523,-4.95869 -6.81831,4.95869 -9.91751,9.29759 -9.91751,13.6365 0,4.3389 19.83497,137.604751 26.03336,143.183359 6.19845,5.5786082 30.37224,8.058019 37.19048,2.479252 6.81831,-5.578555 8.05796,-8.677752 8.6778,-16.115852 0.0689,-0.81184 0.15903,-13.365086 0.26505,-16.322908"
       id="path1403"
       inkscape:connector-curvature="0"
       sodipodi:nodetypes="ccccccscccc" />
    <path
       style="fill:none;stroke:#000000;stroke-width:7;stroke-linecap:butt;stroke-linejoin:miter;stroke-opacity:1;stroke-miterlimit:4;stroke-dasharray:none"
       d="m 270.29007,-145.73522 c -16.94844,-6.58889 -47.87439,7.43784 -52.35144,14.24216 -4.47707,6.80434 -5.86724,11.82224 -4.52531,15.8283 1.34194,4.00603 60.04555,120.572529 67.23517,123.6995032 7.1897,3.1268148 29.2672,-2.4766013 33.55243,-9.8532898 4.28542,-7.376662 4.41964,-10.6428394 2.6654,-17.7126554 -1.75408,-7.069923 -33.11776,-108.030228 -35.06352,-115.672308 -1.94598,-7.64219 -11.51294,-10.53192 -11.51294,-10.53192 z"
       id="path1351-3"
       inkscape:connector-curvature="0" />
    <path
       style="fill:none;stroke:#000000;stroke-width:7;stroke-linecap:butt;stroke-linejoin:miter;stroke-opacity:1;stroke-miterlimit:4;stroke-dasharray:none"
       d="m 207.51001,-92.964684 c -16.0889,-2.042984 -39.82285,16.771579 -42.22818,23.62623 -2.4053,6.854784 -2.5251,11.497139 -0.49988,14.674102 2.02602,3.176962 77.99034,91.375748 84.88692,92.529631 6.89671,1.15375 24.79204,-8.461394 26.9078,-15.769966 2.11614,-7.308598 1.52694,-10.164031 -1.51713,-15.9032047 -3.04417,-5.7393592 -51.98045,-86.3353983 -55.314,-92.5284913 -3.33379,-6.19312 -12.23646,-6.628487 -12.23646,-6.628487 z"
       id="path1351-3-5"
       inkscape:connector-curvature="0" />
    <path
       style="fill:none;stroke:#000000;stroke-width:7;stroke-linecap:butt;stroke-linejoin:miter;stroke-opacity:1;stroke-miterlimit:4;stroke-dasharray:none"
       d="m 160.42148,-38.007512 c -14.49554,1.666087 -31.22193,23.418036 -31.86146,29.9958983 -0.63956,6.5780217 0.24649,10.707272 2.69383,13.0783315 2.44824,2.3708475 87.64836,63.9372112 93.92126,63.4688722 6.27298,-0.468603 19.85986,-12.829054 20.14953,-19.745674 0.28996,-6.916725 -0.83437,-9.313521 -4.71869,-13.729473 -3.88472,-4.416111 -63.8437,-65.094831 -68.0781,-69.849566 -4.23458,-4.754683 -12.10725,-3.218336 -12.10725,-3.218336 z"
       id="path1351-3-5-9"
       inkscape:connector-curvature="0" />
    <path
       style="fill:none;stroke:#000000;stroke-width:7;stroke-linecap:butt;stroke-linejoin:miter;stroke-opacity:1;stroke-miterlimit:4;stroke-dasharray:none"
       d="m 174.81839,36.678291 c 7.4047,55.422622 54.97899,92.073829 58.69802,117.487349 3.71907,25.41353 38.35279,22.90804 48.2703,23.52825 9.91743,0.62021 61.19561,-12.24651 77.31152,-23.40367 16.1159,-11.15717 64.6139,-94.446854 66.47347,-106.843722 1.85957,-12.396842 -1.85957,-101.034176 -9.29759,-115.910375 -7.4381,-14.8762 -105.85011,-72.539743 -105.85011,-72.539743 0,0 -15.51433,25.77664 0.60166,56.768743 16.11588,30.992079 54.16473,34.303977 57.26393,45.461113 3.09922,11.157163 -9.49195,33.3833614 -23.12858,35.2428797 -13.63652,1.8595714 -36.95551,8.9653551 -67.8453,34.8691103 -29.07775,24.384186 -42.65517,40.520632 -28.39881,74.612014"
       id="path1398"
       inkscape:connector-curvature="0"
       sodipodi:nodetypes="ccsssccsccsc" />
  </g>
</svg>
